<?xml version="1.0" encoding="UTF-8"?>
<svg width="42px" height="64px" viewBox="0 0 42 64" version="1.1" xmlns="http://www.w3.org/2000/svg" xmlns:xlink="http://www.w3.org/1999/xlink">
    <title>baterias</title>
    <g id="Page-1" stroke="none" stroke-width="1" fill="none" fill-rule="evenodd">
        <g id="baterias" transform="translate(1.000000, 0.000000)">
            <rect id="Rectangle" stroke="#34CBAB" stroke-width="2" x="0" y="9" width="40" height="54" rx="4"></rect>
            <path d="M10,5 C10,2.23858 12.2386,0 15,0 L25,0 C27.7614,0 30,2.23858 30,5 L30,10 L10,10 L10,5 Z" id="Path" fill="#33C5CC" fill-rule="nonzero"></path>
            <path d="M11,5 C11,2.79086 12.7909,1 15,1 L25,1 C27.2091,1 29,2.79086 29,5 L29,9 L11,9 L11,5 Z" id="Path" stroke="#34CBAB" stroke-width="2"></path>
            <polygon id="Path" fill="#33C5CC" fill-rule="nonzero" points="11 38.8261 20 22 20 32.1739 29 32.1739 20 49 20 38.8261"></polygon>
            <polygon id="Path" stroke="#34CBAB" stroke-width="2" stroke-linejoin="round" points="11 38.8261 20 22 20 32.1739 29 32.1739 20 49 20 38.8261"></polygon>
            <line x1="0" y1="14" x2="41" y2="14" id="Path" stroke="#34CBAB" stroke-width="2"></line>
            <line x1="0" y1="58" x2="41" y2="58" id="Path" stroke="#34CBAB" stroke-width="2"></line>
        </g>
    </g>
</svg>