<?xml version="1.0" encoding="UTF-8"?>
<svg width="42px" height="64px" viewBox="0 0 42 64" version="1.1" xmlns="http://www.w3.org/2000/svg" xmlns:xlink="http://www.w3.org/1999/xlink">
    <title>eletronicos</title>
    <g id="Page-1" stroke="none" stroke-width="1" fill="none" fill-rule="evenodd">
        <g id="eletronicos" fill-rule="nonzero">
            <path d="M35,26 L7,26 C5.895,26 5,24.9558 5,23.6667 L5,7.33333 C5,6.04419 5.895,5 7,5 L35,5 C36.105,5 37,6.04419 37,7.33333 L37,23.6667 C37,24.9558 36.105,26 35,26 Z" id="Path" fill="#33C5CC"></path>
            <path d="M5.5158,0.5 L36.4835,0.5 C39.0531,0.5 41.1448,2.59167 41.1448,5.16129 L41.1448,26.5953 C41.1448,28.1856 40.7687,29.7814 40.057,31.2043 L40.0568,31.2047 C39.4186,32.4838 39.0803,33.9125 39.0803,35.3402 L39.0803,58.8387 C39.0803,61.4083 36.9886,63.5 34.419,63.5 L7.5803,63.5 C5.0107,63.5 2.919,61.4083 2.919,58.8387 L2.919,35.3402 C2.919,33.9136 2.5808,32.4838 1.9424,31.2055 L1.9424,31.2055 C1.2306,29.7804 0.8545,28.1855 0.8545,26.5953 L0.8545,5.16129 C0.8545,2.59167 2.9462,0.5 5.5158,0.5 Z M39.1036,30.7301 L39.1037,30.7299 C39.7421,29.4517 40.0803,28.0229 40.0803,26.5953 L40.0803,5.16129 C40.0803,3.17799 38.4668,1.56452 36.4835,1.56452 L5.5158,1.56452 C3.5325,1.56452 1.919,3.17799 1.919,5.16129 L1.919,26.5953 C1.919,28.0229 2.2573,29.4517 2.8956,30.7299 L2.8957,30.7301 C3.6074,32.1541 3.9835,33.7499 3.9835,35.3402 L3.9835,58.8387 C3.9835,60.822 5.597,62.4355 7.5803,62.4355 L34.419,62.4355 C36.4023,62.4355 38.0158,60.822 38.0158,58.8387 L38.0158,35.3402 C38.0158,33.7499 38.3919,32.1541 39.1036,30.7301 Z" id="Shape" stroke="#34CBAB" fill="#34CBAB"></path>
            <path d="M8.1133,57.8065 L8.1133,58.3065 L8.6133,58.3065 L12.7444,58.3065 L13.2449,58.3065 L13.2444,57.806 L13.2424,55.7415 L13.2419,55.242 L12.7424,55.242 L8.6133,55.242 L8.1133,55.242 L8.1133,55.742 L8.1133,57.8065 Z M8.6133,54.1775 L12.7424,54.1775 C13.6048,54.1775 14.3069,54.8795 14.3069,55.742 L14.3069,57.8065 C14.3069,58.669 13.6048,59.371 12.7424,59.371 L8.6133,59.371 C7.7509,59.371 7.0488,58.669 7.0488,57.8065 L7.0488,55.742 C7.0488,54.8795 7.7509,54.1775 8.6133,54.1775 Z" id="Shape" stroke="#34CBAB" fill="#34CBAB"></path>
            <path d="M8.1133,49.5485 L8.1133,50.0485 L8.6133,50.0485 L12.7444,50.0485 L13.2449,50.0485 L13.2444,49.548 L13.2424,47.4835 L13.2419,46.984 L12.7424,46.984 L8.6133,46.984 L8.1133,46.984 L8.1133,47.484 L8.1133,49.5485 Z M8.6133,45.9194 L12.7424,45.9194 C13.6048,45.9194 14.3069,46.6215 14.3069,47.484 L14.3069,49.5485 C14.3069,50.4109 13.6048,51.113 12.7424,51.113 L8.6133,51.113 C7.7509,51.113 7.0488,50.4109 7.0488,49.5485 L7.0488,47.484 C7.0488,46.6215 7.7509,45.9194 8.6133,45.9194 Z" id="Shape" stroke="#34CBAB" fill="#34CBAB"></path>
            <path d="M8.1133,41.2904 L8.1133,41.7904 L8.6133,41.7904 L12.7444,41.7904 L13.2449,41.7904 L13.2444,41.2899 L13.2424,39.2254 L13.2419,38.7259 L12.7424,38.7259 L8.6133,38.7259 L8.1133,38.7259 L8.1133,39.2259 L8.1133,41.2904 Z M8.6133,37.6614 L12.7424,37.6614 C13.6048,37.6614 14.3069,38.3634 14.3069,39.2259 L14.3069,41.2904 C14.3069,42.1529 13.6048,42.8549 12.7424,42.8549 L8.6133,42.8549 C7.7509,42.8549 7.0488,42.1529 7.0488,41.2904 L7.0488,39.2259 C7.0488,38.3634 7.7509,37.6614 8.6133,37.6614 Z" id="Shape" stroke="#34CBAB" fill="#34CBAB"></path>
            <path d="M18.4356,57.8065 L18.4356,58.3065 L18.9356,58.3065 L23.0667,58.3065 L23.5671,58.3065 L23.5667,57.806 L23.5646,55.7415 L23.5642,55.242 L23.0646,55.242 L18.9356,55.242 L18.4356,55.242 L18.4356,55.742 L18.4356,57.8065 Z M18.9356,54.1775 L23.0646,54.1775 C23.9271,54.1775 24.6292,54.8795 24.6292,55.742 L24.6292,57.8065 C24.6292,58.669 23.9271,59.371 23.0646,59.371 L18.9356,59.371 C18.0731,59.371 17.3711,58.669 17.3711,57.8065 L17.3711,55.742 C17.3711,54.8795 18.0731,54.1775 18.9356,54.1775 Z" id="Shape" stroke="#34CBAB" fill="#34CBAB"></path>
            <path d="M18.4356,49.5485 L18.4356,50.0485 L18.9356,50.0485 L23.0667,50.0485 L23.5671,50.0485 L23.5667,49.548 L23.5646,47.4835 L23.5642,46.984 L23.0646,46.984 L18.9356,46.984 L18.4356,46.984 L18.4356,47.484 L18.4356,49.5485 Z M18.9356,45.9194 L23.0646,45.9194 C23.9271,45.9194 24.6292,46.6215 24.6292,47.484 L24.6292,49.5485 C24.6292,50.4109 23.9271,51.113 23.0646,51.113 L18.9356,51.113 C18.0731,51.113 17.3711,50.4109 17.3711,49.5485 L17.3711,47.484 C17.3711,46.6215 18.0731,45.9194 18.9356,45.9194 Z" id="Shape" stroke="#34CBAB" fill="#34CBAB"></path>
            <path d="M18.4356,41.2904 L18.4356,41.7904 L18.9356,41.7904 L23.0667,41.7904 L23.5671,41.7904 L23.5667,41.2899 L23.5646,39.2254 L23.5642,38.7259 L23.0646,38.7259 L18.9356,38.7259 L18.4356,38.7259 L18.4356,39.2259 L18.4356,41.2904 Z M18.9356,37.6614 L23.0646,37.6614 C23.9271,37.6614 24.6292,38.3634 24.6292,39.2259 L24.6292,41.2904 C24.6292,42.1529 23.9271,42.8549 23.0646,42.8549 L18.9356,42.8549 C18.0731,42.8549 17.3711,42.1529 17.3711,41.2904 L17.3711,39.2259 C17.3711,38.3634 18.0731,37.6614 18.9356,37.6614 Z" id="Shape" stroke="#34CBAB" fill="#34CBAB"></path>
            <path d="M17.9034,29.4033 L24.097,29.4033 C25.528,29.4033 26.6937,30.5691 26.6937,32.0001 C26.6937,33.4311 25.528,34.5969 24.097,34.5969 L17.9034,34.5969 C16.4724,34.5969 15.3066,33.4311 15.3066,32.0001 C15.3066,30.5691 16.4724,29.4033 17.9034,29.4033 Z M17.9034,33.5324 L24.097,33.5324 C24.943,33.5324 25.6292,32.8445 25.6292,32.0001 C25.6292,31.1557 24.943,30.4678 24.097,30.4678 L17.9034,30.4678 C17.0574,30.4678 16.3712,31.1557 16.3712,32.0001 C16.3712,32.8445 17.0574,33.5324 17.9034,33.5324 Z" id="Shape" stroke="#34CBAB" fill="#34CBAB"></path>
            <path d="M28.7579,57.8065 L28.7579,58.3065 L29.2579,58.3065 L33.3889,58.3065 L33.8894,58.3065 L33.8889,57.806 L33.8869,55.7415 L33.8864,55.242 L33.3869,55.242 L29.2579,55.242 L28.7579,55.242 L28.7579,55.742 L28.7579,57.8065 Z M29.2579,54.1775 L33.3869,54.1775 C34.2494,54.1775 34.9514,54.8795 34.9514,55.742 L34.9514,57.8065 C34.9514,58.669 34.2494,59.371 33.3869,59.371 L29.2579,59.371 C28.3954,59.371 27.6934,58.669 27.6934,57.8065 L27.6934,55.742 C27.6934,54.8795 28.3954,54.1775 29.2579,54.1775 Z" id="Shape" stroke="#34CBAB" fill="#34CBAB"></path>
            <path d="M28.7579,49.5485 L28.7579,50.0485 L29.2579,50.0485 L33.3889,50.0485 L33.8894,50.0485 L33.8889,49.548 L33.8869,47.4835 L33.8864,46.984 L33.3869,46.984 L29.2579,46.984 L28.7579,46.984 L28.7579,47.484 L28.7579,49.5485 Z M29.2579,45.9194 L33.3869,45.9194 C34.2494,45.9194 34.9514,46.6215 34.9514,47.484 L34.9514,49.5485 C34.9514,50.4109 34.2494,51.113 33.3869,51.113 L29.2579,51.113 C28.3954,51.113 27.6934,50.4109 27.6934,49.5485 L27.6934,47.484 C27.6934,46.6215 28.3954,45.9194 29.2579,45.9194 Z" id="Shape" stroke="#34CBAB" fill="#34CBAB"></path>
            <path d="M28.7579,41.2904 L28.7579,41.7904 L29.2579,41.7904 L33.3889,41.7904 L33.8894,41.7904 L33.8889,41.2899 L33.8869,39.2254 L33.8864,38.7259 L33.3869,38.7259 L29.2579,38.7259 L28.7579,38.7259 L28.7579,39.2259 L28.7579,41.2904 Z M29.2579,37.6614 L33.3869,37.6614 C34.2494,37.6614 34.9514,38.3634 34.9514,39.2259 L34.9514,41.2904 C34.9514,42.1529 34.2494,42.8549 33.3869,42.8549 L29.2579,42.8549 C28.3954,42.8549 27.6934,42.1529 27.6934,41.2904 L27.6934,39.2259 C27.6934,38.3634 28.3954,37.6614 29.2579,37.6614 Z" id="Shape" stroke="#34CBAB" fill="#34CBAB"></path>
            <path d="M31.3223,30.4678 L30.8223,30.4678 L30.8223,30.9678 L30.8223,33.0324 L30.8223,33.5324 L31.3223,33.5324 L33.3868,33.5324 L33.8868,33.5324 L33.8868,33.0324 L33.8868,30.9678 L33.8868,30.4678 L33.3868,30.4678 L31.3223,30.4678 Z M34.9514,29.4033 L34.9514,34.5969 L29.7578,34.5969 L29.7578,29.4033 L34.9514,29.4033 Z" id="Shape" stroke="#34CBAB" fill="#34CBAB"></path>
            <path d="M10.6779,33.5324 L11.1779,33.5324 L11.1779,33.0324 L11.1779,30.9678 L11.1779,30.4678 L10.6779,30.4678 L8.6133,30.4678 L8.1133,30.4678 L8.1133,30.9678 L8.1133,33.0324 L8.1133,33.5324 L8.6133,33.5324 L10.6779,33.5324 Z M7.0488,29.4033 L12.2424,29.4033 L12.2424,34.5969 L7.0488,34.5969 L7.0488,29.4033 Z" id="Shape" stroke="#34CBAB" fill="#34CBAB"></path>
        </g>
    </g>
</svg>