<?xml version="1.0" encoding="UTF-8"?>
<svg width="64px" height="64px" viewBox="0 0 64 64" version="1.1" xmlns="http://www.w3.org/2000/svg" xmlns:xlink="http://www.w3.org/1999/xlink">
    <title>lampadas</title>
    <g id="Page-1" stroke="none" stroke-width="1" fill="none" fill-rule="evenodd">
        <g id="lampadas">
            <polygon id="Path" stroke="#34CBAB" stroke-width="2" points="11 28.0001 20 28.0001 20 38.0001 11 38.0001"></polygon>
            <path d="M38,14.0001 C37.6106,15.5888 34,17.3224 34,19.143 L34,26.0001 L63,26.0001 L63,19.143 C63,17.3224 58.8894,15.5888 58.5,14.0001 L38,14.0001 Z" id="Path" fill="#33C5CC" fill-rule="nonzero"></path>
            <path d="M1.03263,38.1936 L1.03263,43.3549 C1.03263,44.0721 0.500485,48.5002 8.00041,51.0002 L8.50041,54.5002 L15.0004,54.5002 L22.5005,54.5002 C22.5005,49.5002 28.0005,49.5002 29.5005,45.5002 L29.9359,38.1936 L1.03263,38.1936 Z" id="Path" fill="#33C5CC" fill-rule="nonzero"></path>
            <path d="M56.2742,12.6265 L56.2742,13.0253 L56.663,13.114 C60.5727,14.006 63.5,17.5051 63.5,21.6774 L63.5,26.3387 L55.7419,26.3387 L55.2419,26.3387 L55.2419,26.8387 L55.2419,56.7742 C55.2419,60.4824 52.2234,63.5 48.5161,63.5 C44.8089,63.5 41.7903,60.4824 41.7903,56.7742 L41.7903,26.8387 L41.7903,26.3387 L41.2903,26.3387 L33.5323,26.3387 L33.5323,21.6774 C33.5323,17.5051 36.4596,14.006 40.3693,13.114 L40.7581,13.0253 L40.7581,12.6265 L40.7581,7.22581 C40.7581,6.10407 41.4809,5.15005 42.4905,4.79 L42.8226,4.67159 L42.8226,4.31905 L42.8226,3.09677 C42.8226,1.66576 43.9883,0.5 45.4194,0.5 L51.6129,0.5 C53.0439,0.5 54.2097,1.66576 54.2097,3.09677 L54.2097,4.31905 L54.2097,4.67159 L54.5417,4.79 C55.5514,5.15005 56.2742,6.10407 56.2742,7.22581 L56.2742,12.6265 Z M52.6452,4.62903 L53.1452,4.62903 L53.1452,4.12903 L53.1452,3.09677 C53.1452,2.2524 52.4589,1.56452 51.6129,1.56452 L45.4194,1.56452 C44.5733,1.56452 43.8871,2.2524 43.8871,3.09677 L43.8871,4.12903 L43.8871,4.62903 L44.3871,4.62903 L52.6452,4.62903 Z M54.7097,12.8871 L55.2097,12.8871 L55.2097,12.3871 L55.2097,7.22581 C55.2097,6.38143 54.5234,5.69355 53.6774,5.69355 L43.3548,5.69355 C42.5088,5.69355 41.8226,6.38143 41.8226,7.22581 L41.8226,12.3871 L41.8226,12.8871 L42.3226,12.8871 L54.7097,12.8871 Z M43.3548,26.3387 L42.8548,26.3387 L42.8548,26.8387 L42.8548,56.7742 C42.8548,59.8961 45.3942,62.4355 48.5161,62.4355 C51.638,62.4355 54.1774,59.8961 54.1774,56.7742 L54.1774,26.8387 L54.1774,26.3387 L53.6774,26.3387 L51.6129,26.3387 L51.1129,26.3387 L51.1129,26.8387 L51.1129,56.7742 C51.1129,58.2052 49.9471,59.371 48.5161,59.371 C47.0851,59.371 45.9194,58.2052 45.9194,56.7742 L45.9194,26.8387 L45.9194,26.3387 L45.4194,26.3387 L43.3548,26.3387 Z M47.4839,26.3387 L46.9839,26.3387 L46.9839,26.8387 L46.9839,56.7742 C46.9839,57.6186 47.6701,58.3064 48.5161,58.3064 C49.3621,58.3064 50.0484,57.6186 50.0484,56.7742 L50.0484,26.8387 L50.0484,26.3387 L49.5484,26.3387 L47.4839,26.3387 Z M34.5968,24.7742 L34.5968,25.2742 L35.0968,25.2742 L61.9355,25.2742 L62.4355,25.2742 L62.4355,24.7742 L62.4355,22.7097 L62.4355,20.6452 L62.4355,20.1452 L62.2736,20.1452 C61.5604,16.6178 58.4457,13.9516 54.7097,13.9516 L42.3226,13.9516 C38.5865,13.9516 35.4718,16.6178 34.7587,20.1452 L34.5968,20.1452 L34.5968,20.6452 L34.5968,22.7097 L34.5968,24.7742 Z" id="Shape" stroke="#34CBAB" fill="#34CBAB" fill-rule="nonzero"></path>
            <path d="M7.72581,51.5489 L7.72581,51.1076 L7.28803,51.0527 C3.46762,50.5736 0.5,47.3023 0.5,43.3548 L0.5,37.6613 L30.4677,37.6613 L30.4677,43.3548 C30.4677,47.3023 27.5001,50.5736 23.6797,51.0527 L23.2419,51.1076 L23.2419,51.5489 L23.2419,56.7742 C23.2419,57.8959 22.5191,58.8499 21.5095,59.21 L21.1774,59.3284 L21.1774,59.6809 L21.1774,60.9032 C21.1774,62.3342 20.0117,63.5 18.5806,63.5 L12.3871,63.5 C10.9561,63.5 9.79032,62.3342 9.79032,60.9032 L9.79032,59.6809 L9.79032,59.3284 L9.45826,59.21 C8.4486,58.8499 7.72581,57.8959 7.72581,56.7742 L7.72581,51.5489 Z M11.3548,59.3709 L10.8548,59.3709 L10.8548,59.8709 L10.8548,60.9032 C10.8548,61.7476 11.5411,62.4355 12.3871,62.4355 L18.5806,62.4355 C19.4267,62.4355 20.1129,61.7476 20.1129,60.9032 L20.1129,59.8709 L20.1129,59.3709 L19.6129,59.3709 L11.3548,59.3709 Z M9.29032,55.2419 L8.79032,55.2419 L8.79032,55.7419 L8.79032,56.7742 C8.79032,57.6185 9.47656,58.3064 10.3226,58.3064 L20.6452,58.3064 C21.4912,58.3064 22.1774,57.6185 22.1774,56.7742 L22.1774,55.7419 L22.1774,55.2419 L21.6774,55.2419 L9.29032,55.2419 Z M29.4032,39.2258 L29.4032,38.7258 L28.9032,38.7258 L2.06452,38.7258 L1.56452,38.7258 L1.56452,39.2258 L1.56452,41.2903 L1.56452,43.3548 C1.56452,47.0468 4.56609,50.0484 8.25806,50.0484 L8.79032,50.0484 L8.79032,53.6774 L8.79032,54.1774 L9.29032,54.1774 L21.6774,54.1774 L22.1774,54.1774 L22.1774,53.6774 L22.1774,50.0484 L22.7097,50.0484 C26.4016,50.0484 29.4032,47.0468 29.4032,43.3548 L29.4032,41.2903 L29.4032,39.2258 Z" id="Shape" stroke="#34CBAB" fill="#34CBAB" fill-rule="nonzero"></path>
            <path d="M27.7795,14.4171 L27.4141,14.9547 L28.0275,15.1699 C29.4481,15.6684 30.4677,17.0036 30.4677,18.5807 C30.4677,20.1578 29.4481,21.493 28.0275,21.9915 L27.4141,22.2067 L27.7795,22.7443 C28.1732,23.3235 28.4032,24.022 28.4032,24.7743 C28.4032,26.7753 26.7753,28.4033 24.7742,28.4033 L6.19355,28.4033 C4.19247,28.4033 2.56452,26.7753 2.56452,24.7743 C2.56452,24.022 2.79458,23.3235 3.18823,22.7443 L3.55364,22.2067 L2.94023,21.9915 C1.51965,21.493 0.5,20.1578 0.5,18.5807 C0.5,17.0036 1.51965,15.6684 2.94023,15.1699 L3.55364,14.9547 L3.18823,14.4171 C2.79458,13.8379 2.56452,13.1394 2.56452,12.3872 C2.56452,10.8101 3.58416,9.47483 5.00475,8.9764 L5.61816,8.76118 L5.25274,8.22354 C4.8591,7.64436 4.62903,6.94588 4.62903,6.19361 C4.62903,4.19253 6.25699,2.56458 8.25806,2.56458 L18.5806,2.56458 C20.5817,2.56458 22.2097,4.19253 22.2097,6.19361 C22.2097,6.85025 22.02,7.46337 21.7036,8.00641 L21.2656,8.75812 L22.1356,8.75812 L24.7742,8.75812 C26.7753,8.75812 28.4032,10.3861 28.4032,12.3872 C28.4032,13.1394 28.1732,13.8379 27.7795,14.4171 Z M18.5806,3.62909 L8.25806,3.62909 C6.84331,3.62909 5.69355,4.77886 5.69355,6.19361 C5.69355,7.60836 6.84331,8.75812 8.25806,8.75812 L18.5806,8.75812 C19.9954,8.75812 21.1452,7.60836 21.1452,6.19361 C21.1452,4.77886 19.9954,3.62909 18.5806,3.62909 Z M24.7742,9.82264 L6.19355,9.82264 C4.7788,9.82264 3.62903,10.9724 3.62903,12.3872 C3.62903,13.8019 4.7788,14.9517 6.19355,14.9517 L24.7742,14.9517 C26.1889,14.9517 27.3387,13.8019 27.3387,12.3872 C27.3387,10.9724 26.1889,9.82264 24.7742,9.82264 Z M6.19355,27.3388 L24.7742,27.3388 C26.1889,27.3388 27.3387,26.189 27.3387,24.7743 C27.3387,23.3595 26.1889,22.2097 24.7742,22.2097 L6.19355,22.2097 C4.7788,22.2097 3.62903,23.3595 3.62903,24.7743 C3.62903,26.189 4.7788,27.3388 6.19355,27.3388 Z M4.12903,21.1452 L26.8387,21.1452 C28.2535,21.1452 29.4032,19.9955 29.4032,18.5807 C29.4032,17.166 28.2535,16.0162 26.8387,16.0162 L4.12903,16.0162 C2.71428,16.0162 1.56452,17.166 1.56452,18.5807 C1.56452,19.9955 2.71428,21.1452 4.12903,21.1452 Z" id="Shape" stroke="#34CBAB" fill="#34CBAB" fill-rule="nonzero"></path>
        </g>
    </g>
</svg>