<?xml version="1.0" encoding="UTF-8"?>
<svg width="56px" height="64px" viewBox="0 0 56 64" version="1.1" xmlns="http://www.w3.org/2000/svg" xmlns:xlink="http://www.w3.org/1999/xlink">
    <title>oleo</title>
    <defs>
        <path d="M52.9807,16.9289 L47.6128,12.9032 L47.6128,8.25806 L49.6773,8.25806 L49.6773,3.09677 C49.6773,1.38962 48.2877,0 46.5805,0 L30.0644,0 C28.3572,0 26.9676,1.38962 26.9676,3.09677 L26.9676,8.25806 L29.0321,8.25806 L29.0321,12.9032 L23.6642,16.9289 C23.4288,17.1053 23.207,17.2964 22.9974,17.499 C22.2937,15.9007 21.4676,14.3558 20.5326,12.8856 L18.7096,10.0222 L18.7096,8.25806 L20.7741,8.25806 L20.7741,3.09677 C20.7741,1.38962 19.3844,0 17.6773,0 L9.4192,0 C7.7121,0 6.3225,1.38962 6.3225,3.09677 L6.3225,8.25806 L8.387,8.25806 L8.387,10.0222 L6.5609,12.8906 C3.0286,18.4425 1.16116,24.8558 1.16116,31.4355 C1.16116,34.6457 1.60824,37.8382 2.4908,40.9259 L2.63193,41.4204 C3.02659,42.8004 3.22568,44.2273 3.22568,45.6608 C3.22568,48.0444 2.66217,50.4309 1.59564,52.5635 L0.85471,54.0469 C0.37991,54.9955 0.12891,56.06 0.12891,57.122 C0.12891,60.9148 3.21409,64 7.0069,64 L7.9596,64 C9.1778,64 10.3214,63.5262 11.1823,62.6653 C11.6521,62.1946 12.2776,61.9355 12.9434,61.9355 L14.1531,61.9355 C14.8189,61.9355 15.4444,62.1946 15.9152,62.6653 C16.7751,63.5262 17.9187,64 19.137,64 L20.0896,64 C21.4893,64 22.8325,63.5539 23.9722,62.7697 C25.1239,63.5459 26.5095,64 27.9999,64 L48.645,64 C52.6294,64 55.8708,60.7576 55.8708,56.7742 L55.8708,22.7097 C55.8708,20.4471 54.7902,18.2863 52.9807,16.9289 Z M53.8063,24.7742 L53.8063,55.7419 L22.8386,55.7419 L22.8386,53.6774 L22.8386,51.6129 L22.8386,22.7097 C22.8386,21.9914 22.9984,21.2903 23.2816,20.6452 L53.3623,20.6452 C53.6465,21.2903 53.8063,21.9914 53.8063,22.7097 L53.8063,24.7742 Z M3.22568,31.4355 C3.22568,31.0625 3.25239,30.692 3.26499,30.3206 C3.60975,30.4662 3.92225,30.6426 4.25592,30.8327 C5.21459,31.3795 6.3008,31.999 8.3799,31.999 C10.4596,31.999 11.5457,31.3785 12.5044,30.8306 C13.3461,30.3503 14.0725,29.9355 15.6047,29.9355 C17.1385,29.9355 17.8653,30.3503 18.7075,30.8327 C19.2771,31.1578 19.9091,31.5146 20.7731,31.748 L20.7731,33.7011 C20.4076,33.5514 20.0805,33.3679 19.7302,33.1683 C18.7736,32.6205 17.6864,32 15.6047,32 C13.5246,32 12.4384,32.6205 11.4797,33.1683 C10.6385,33.6497 9.9127,34.0645 8.3799,34.0645 C6.8477,34.0645 6.1213,33.6507 5.2776,33.1694 C4.71711,32.8498 4.09564,32.5005 3.25441,32.2671 C3.24735,31.9899 3.22568,31.7132 3.22568,31.4355 Z M29.0321,3.09677 C29.0321,2.52823 29.4958,2.06452 30.0644,2.06452 L46.5805,2.06452 C47.1491,2.06452 47.6128,2.52823 47.6128,3.09677 L47.6128,6.19355 L29.0321,6.19355 L29.0321,3.09677 Z M45.5483,8.25806 L45.5483,12.3871 L31.0966,12.3871 L31.0966,8.25806 L45.5483,8.25806 Z M30.4081,14.4516 L46.2358,14.4516 L51.7408,18.5806 L24.9031,18.5806 L30.4081,14.4516 Z M8.387,3.09677 C8.387,2.52823 8.8507,2.06452 9.4192,2.06452 L17.6773,2.06452 C18.2458,2.06452 18.7096,2.52823 18.7096,3.09677 L18.7096,6.19355 L8.387,6.19355 L8.387,3.09677 Z M8.3033,13.9995 L10.4515,10.623 L10.4515,8.25806 L16.645,8.25806 L16.645,10.624 L18.7912,13.9955 C19.8845,15.7132 20.8114,17.5444 21.5639,19.4395 C21.0538,20.443 20.7741,21.563 20.7741,22.7097 L20.7741,29.5721 C20.4086,29.4224 20.0815,29.2389 19.7317,29.0393 C18.7736,28.4914 17.6864,27.871 15.6047,27.871 C13.5246,27.871 12.4384,28.4914 11.4797,29.0393 C10.6385,29.5207 9.9127,29.9355 8.3799,29.9355 C6.8487,29.9355 6.1213,29.5207 5.28012,29.0393 C4.75441,28.7399 4.17225,28.4138 3.40814,28.1825 C3.91318,23.1492 5.56691,18.2989 8.3033,13.9995 Z M19.137,61.9355 C18.4711,61.9355 17.8456,61.6764 17.3749,61.2056 C16.515,60.3448 15.3713,59.871 14.1531,59.871 L12.9434,59.871 C11.7252,59.871 10.5815,60.3448 9.7206,61.2056 C9.2509,61.6764 8.6254,61.9355 7.9596,61.9355 L7.0069,61.9355 C4.3527,61.9355 2.19342,59.7762 2.19342,57.122 C2.19342,56.379 2.36883,55.6346 2.70149,54.9698 L3.44241,53.4864 C4.65108,51.0701 5.2902,48.3644 5.2902,45.6608 C5.2902,44.5388 5.17477,43.4219 4.96106,42.3226 L4.44997,40.2581 C3.91822,38.376 3.57346,36.4511 3.38999,34.5096 C3.68586,34.6436 3.96358,34.7964 4.25592,34.9627 C5.21459,35.5086 6.3008,36.129 8.3799,36.129 C10.4596,36.129 11.5457,35.5076 12.5044,34.9607 C13.3461,34.4793 14.0725,34.0645 15.6047,34.0645 C17.1385,34.0645 17.8653,34.4793 18.7075,34.9607 C19.2771,35.2868 19.9091,35.6436 20.7731,35.877 L20.7731,56.7742 C20.7731,58.5 21.3829,60.0857 22.3965,61.3296 C21.6949,61.7167 20.9061,61.9355 20.0896,61.9355 L19.137,61.9355 Z M48.645,61.9355 L27.9999,61.9355 C25.5079,61.9355 23.4228,60.1588 22.9429,57.8064 L53.702,57.8064 C53.2221,60.1588 51.137,61.9355 48.645,61.9355 Z" id="path-1"></path>
    </defs>
    <g id="Page-1" stroke="none" stroke-width="1" fill="none" fill-rule="evenodd">
        <g id="oleo">
            <path d="M54,28 L54,48 L22,48 L22,28 L54,28 Z M43.5,39.4453 C43.5,38.5091 43.0571,37.6089 42.2446,36.8818 L38,32.5455 L34.2554,36.8818 C33.4429,37.6089 33,38.5091 33,39.4453 C33,41.6634 34.0451,44 37.0481,44 L38.5,44 C40.0018,44 41.5817,43.0089 42.5661,42.2818 C43.5505,41.5547 43.5,40.5546 43.5,39.4453 Z" id="Shape" fill="#33C5CC" fill-rule="nonzero"></path>
            <path d="M21.8063,22.7097 L21.8063,30.9058 C19.1843,30.555 18.8436,28.9033 15.6027,28.9033 C11.9898,28.9033 11.9898,30.9678 8.3769,30.9678 C5.18684,30.9678 4.81537,29.3574 2.28613,28.9859 C2.44137,26.8594 2.80226,24.7536 3.35972,22.7097 L21.8063,22.7097 Z" id="Path" fill="#33C5CC" fill-rule="nonzero"></path>
            <path d="M21.8065,52.6451 L21.8065,54.7096 L1.6875,54.7096 C1.71875,54.6376 1.7495,54.565 1.78075,54.503 L2.52369,53.0272 C3.65927,50.7354 4.25806,48.2167 4.25806,45.6567 C4.25806,44.1804 4.05141,42.7147 3.66986,41.2903 L3.65927,41.2903 C3.65927,41.2389 3.63861,41.187 3.62853,41.1356 L3.48387,40.6401 C2.937,38.7197 2.55494,36.7585 2.24496,33.1043 L2.25554,33.1043 C4.81552,33.4763 5.17692,35.0967 8.377,35.0967 C11.9899,35.0967 11.9899,33.0322 15.6028,33.0322 C18.8438,33.0322 19.1845,34.6839 21.8065,35.0347 L21.8065,52.6451 Z" id="Path" fill="#33C5CC" fill-rule="nonzero"></path>
            <g id="Clipped">
                <mask id="mask-2" fill="white">
                    <use xlink:href="#path-1"></use>
                </mask>
                <g id="Shape"></g>
                <path d="M52.9807,16.9289 L47.6128,12.9032 L47.6128,8.25806 L49.6773,8.25806 L49.6773,3.09677 C49.6773,1.38962 48.2877,0 46.5805,0 L30.0644,0 C28.3572,0 26.9676,1.38962 26.9676,3.09677 L26.9676,8.25806 L29.0321,8.25806 L29.0321,12.9032 L23.6642,16.9289 C23.4288,17.1053 23.207,17.2964 22.9974,17.499 C22.2937,15.9007 21.4676,14.3558 20.5326,12.8856 L18.7096,10.0222 L18.7096,8.25806 L20.7741,8.25806 L20.7741,3.09677 C20.7741,1.38962 19.3844,0 17.6773,0 L9.4192,0 C7.7121,0 6.3225,1.38962 6.3225,3.09677 L6.3225,8.25806 L8.387,8.25806 L8.387,10.0222 L6.5609,12.8906 C3.0286,18.4425 1.16116,24.8558 1.16116,31.4355 C1.16116,34.6457 1.60824,37.8382 2.4908,40.9259 L2.63193,41.4204 C3.02659,42.8004 3.22568,44.2273 3.22568,45.6608 C3.22568,48.0444 2.66217,50.4309 1.59564,52.5635 L0.85471,54.0469 C0.37991,54.9955 0.12891,56.06 0.12891,57.122 C0.12891,60.9148 3.21409,64 7.0069,64 L7.9596,64 C9.1778,64 10.3214,63.5262 11.1823,62.6653 C11.6521,62.1946 12.2776,61.9355 12.9434,61.9355 L14.1531,61.9355 C14.8189,61.9355 15.4444,62.1946 15.9152,62.6653 C16.7751,63.5262 17.9187,64 19.137,64 L20.0896,64 C21.4893,64 22.8325,63.5539 23.9722,62.7697 C25.1239,63.5459 26.5095,64 27.9999,64 L48.645,64 C52.6294,64 55.8708,60.7576 55.8708,56.7742 L55.8708,22.7097 C55.8708,20.4471 54.7902,18.2863 52.9807,16.9289 Z M53.8063,24.7742 L53.8063,55.7419 L22.8386,55.7419 L22.8386,53.6774 L22.8386,51.6129 L22.8386,22.7097 C22.8386,21.9914 22.9984,21.2903 23.2816,20.6452 L53.3623,20.6452 C53.6465,21.2903 53.8063,21.9914 53.8063,22.7097 L53.8063,24.7742 Z M3.22568,31.4355 C3.22568,31.0625 3.25239,30.692 3.26499,30.3206 C3.60975,30.4662 3.92225,30.6426 4.25592,30.8327 C5.21459,31.3795 6.3008,31.999 8.3799,31.999 C10.4596,31.999 11.5457,31.3785 12.5044,30.8306 C13.3461,30.3503 14.0725,29.9355 15.6047,29.9355 C17.1385,29.9355 17.8653,30.3503 18.7075,30.8327 C19.2771,31.1578 19.9091,31.5146 20.7731,31.748 L20.7731,33.7011 C20.4076,33.5514 20.0805,33.3679 19.7302,33.1683 C18.7736,32.6205 17.6864,32 15.6047,32 C13.5246,32 12.4384,32.6205 11.4797,33.1683 C10.6385,33.6497 9.9127,34.0645 8.3799,34.0645 C6.8477,34.0645 6.1213,33.6507 5.2776,33.1694 C4.71711,32.8498 4.09564,32.5005 3.25441,32.2671 C3.24735,31.9899 3.22568,31.7132 3.22568,31.4355 Z M29.0321,3.09677 C29.0321,2.52823 29.4958,2.06452 30.0644,2.06452 L46.5805,2.06452 C47.1491,2.06452 47.6128,2.52823 47.6128,3.09677 L47.6128,6.19355 L29.0321,6.19355 L29.0321,3.09677 Z M45.5483,8.25806 L45.5483,12.3871 L31.0966,12.3871 L31.0966,8.25806 L45.5483,8.25806 Z M30.4081,14.4516 L46.2358,14.4516 L51.7408,18.5806 L24.9031,18.5806 L30.4081,14.4516 Z M8.387,3.09677 C8.387,2.52823 8.8507,2.06452 9.4192,2.06452 L17.6773,2.06452 C18.2458,2.06452 18.7096,2.52823 18.7096,3.09677 L18.7096,6.19355 L8.387,6.19355 L8.387,3.09677 Z M8.3033,13.9995 L10.4515,10.623 L10.4515,8.25806 L16.645,8.25806 L16.645,10.624 L18.7912,13.9955 C19.8845,15.7132 20.8114,17.5444 21.5639,19.4395 C21.0538,20.443 20.7741,21.563 20.7741,22.7097 L20.7741,29.5721 C20.4086,29.4224 20.0815,29.2389 19.7317,29.0393 C18.7736,28.4914 17.6864,27.871 15.6047,27.871 C13.5246,27.871 12.4384,28.4914 11.4797,29.0393 C10.6385,29.5207 9.9127,29.9355 8.3799,29.9355 C6.8487,29.9355 6.1213,29.5207 5.28012,29.0393 C4.75441,28.7399 4.17225,28.4138 3.40814,28.1825 C3.91318,23.1492 5.56691,18.2989 8.3033,13.9995 Z M19.137,61.9355 C18.4711,61.9355 17.8456,61.6764 17.3749,61.2056 C16.515,60.3448 15.3713,59.871 14.1531,59.871 L12.9434,59.871 C11.7252,59.871 10.5815,60.3448 9.7206,61.2056 C9.2509,61.6764 8.6254,61.9355 7.9596,61.9355 L7.0069,61.9355 C4.3527,61.9355 2.19342,59.7762 2.19342,57.122 C2.19342,56.379 2.36883,55.6346 2.70149,54.9698 L3.44241,53.4864 C4.65108,51.0701 5.2902,48.3644 5.2902,45.6608 C5.2902,44.5388 5.17477,43.4219 4.96106,42.3226 L4.44997,40.2581 C3.91822,38.376 3.57346,36.4511 3.38999,34.5096 C3.68586,34.6436 3.96358,34.7964 4.25592,34.9627 C5.21459,35.5086 6.3008,36.129 8.3799,36.129 C10.4596,36.129 11.5457,35.5076 12.5044,34.9607 C13.3461,34.4793 14.0725,34.0645 15.6047,34.0645 C17.1385,34.0645 17.8653,34.4793 18.7075,34.9607 C19.2771,35.2868 19.9091,35.6436 20.7731,35.877 L20.7731,56.7742 C20.7731,58.5 21.3829,60.0857 22.3965,61.3296 C21.6949,61.7167 20.9061,61.9355 20.0896,61.9355 L19.137,61.9355 Z M48.645,61.9355 L27.9999,61.9355 C25.5079,61.9355 23.4228,60.1588 22.9429,57.8064 L53.702,57.8064 C53.2221,60.1588 51.137,61.9355 48.645,61.9355 Z" id="Shape" stroke="#34CBAB" stroke-width="2" fill="#34CBAB" fill-rule="nonzero" mask="url(#mask-2)"></path>
            </g>
            <path d="M38.7066,33.2925 L38.3225,32.8314 L37.9383,33.2924 L34.6242,37.2693 C34.6241,37.2694 34.624,37.2695 34.6239,37.2696 C34.6239,37.2696 34.6239,37.2697 34.6238,37.2697 C34.0229,37.9896 33.6934,38.9029 33.6934,39.8403 C33.6934,42.0552 35.4946,43.8549 37.709,43.8549 L38.9369,43.8549 C41.1504,43.8549 42.9515,42.0551 42.9515,39.8403 C42.9515,38.9028 42.622,37.9893 42.0197,37.2693 C42.0196,37.2692 42.0195,37.2691 42.0194,37.269 L38.7066,33.2925 Z M38.9359,44.9194 L37.708,44.9194 C34.9081,44.9194 32.6289,42.6403 32.6289,39.8403 C32.6289,38.6544 33.0471,37.499 33.8053,36.5884 C33.8054,36.5883 33.8054,36.5883 33.8055,36.5882 L38.3224,31.1687 L42.8383,36.587 C42.8383,36.5871 42.8384,36.5871 42.8384,36.5872 C43.598,37.5001 44.016,38.6545 44.016,39.8403 C44.016,42.6402 41.7369,44.9194 38.9359,44.9194 Z" id="Shape" stroke="#34CBAB" fill="#34CBAB" fill-rule="nonzero"></path>
        </g>
    </g>
</svg>