<?xml version="1.0" encoding="UTF-8"?>
<svg width="58px" height="62px" viewBox="0 0 58 62" version="1.1" xmlns="http://www.w3.org/2000/svg" xmlns:xlink="http://www.w3.org/1999/xlink">
    <title>organicos</title>
    <defs>
        <path d="M49.6663,48.4727 C54.098,48.4727 57.7033,52.0125 57.7033,56.3636 L57.7033,59.7455 L57.7033,62 L0.2959,62 L0.2959,59.7455 L0.2959,56.3636 C0.2959,53.1981 2.20873,50.4691 4.9552,49.2119 L6.90784,42.8226 C6.96259,42.6461 7.034,42.4798 7.1056,42.3131 C7.1323,42.2511 7.1589,42.189 7.1848,42.1263 L7.1848,24.205 C7.1848,22.0561 8.4008,20.1241 10.3585,19.1636 L11.7774,18.4668 L11.7774,15.7818 L9.4811,15.7818 L9.4811,12.4 C9.4811,10.5357 11.0267,9.0182 12.9255,9.0182 L19.8144,9.0182 C21.7132,9.0182 23.2589,10.5357 23.2589,12.4 L23.2589,15.7818 L20.9626,15.7818 L20.9626,18.4668 L22.3826,19.1636 C23.4495,19.6865 24.2943,20.5254 24.8527,21.5442 C25.2614,21.471 25.6813,21.4182 26.127,21.4182 C27.2151,21.4182 28.1845,21.6626 29.0708,22.1624 C29.7553,21.8453 30.8631,21.4182 31.8722,21.4182 C34.3843,21.4182 36.2943,22.7226 37.9806,23.8742 L37.983,23.8758 C38.6002,24.2975 39.1961,24.6806 39.8005,25.0185 L42.7774,23.0695 L42.7774,20.2909 L38.4556,20.2909 C35.7736,20.2909 33.5922,18.1492 33.5922,15.516 C33.5922,14.7784 33.7699,14.0403 34.1052,13.3809 L39.5751,2.63984 C40.4043,1.01113 42.071,0 43.9255,0 C45.7801,0 47.4468,1.01113 48.2759,2.63874 L53.7459,13.3798 C54.0811,14.0403 54.2589,14.7784 54.2589,15.516 C54.2589,18.1492 52.0775,20.2909 49.3955,20.2909 L45.0737,20.2909 L45.0737,23.0695 L51.4507,27.245 L50.177,29.1208 L45.0737,25.7798 L45.0737,28.7058 L51.4507,32.8814 L50.177,34.7572 L45.0737,31.4161 L45.0737,34.3422 L51.4507,38.5177 L50.177,40.3936 L45.0737,37.0525 L45.0737,39.9785 L51.4507,44.153 L50.177,46.0288 L45.0737,42.6877 L45.0737,46.3084 C46.7993,46.5517 48.3494,47.3295 49.5401,48.4727 L49.6663,48.4727 Z M36.1593,14.3887 C35.9827,14.7371 35.8885,15.1268 35.8885,15.516 C35.8885,16.9058 37.04,18.0364 38.4556,18.0364 L49.3955,18.0364 C50.8111,18.0364 51.9626,16.9058 51.9626,15.516 C51.9626,15.1268 51.8695,14.7371 51.6918,14.3887 L46.2218,3.64767 C45.9679,3.14954 45.5569,2.77965 45.0737,2.54077 L42.7774,2.54077 C42.2941,2.77965 41.8832,3.14954 41.6292,3.64767 L36.1593,14.3887 Z M49.6663,55.1224 L49.6663,54.1091 C49.6663,51.3867 47.6901,49.1096 45.0737,48.5867 L45.0737,49.6 C45.0737,52.3213 47.0499,54.5995 49.6663,55.1224 Z M38.1848,55.1224 C40.8012,54.5995 42.7774,52.3224 42.7774,49.6 L42.7774,48.5867 C40.161,49.1096 38.1848,51.3867 38.1848,54.1091 L38.1848,55.1224 Z M12.9255,11.2727 C12.2931,11.2727 11.7774,11.7791 11.7774,12.4 L11.7774,13.5273 L20.9626,13.5273 L20.9626,12.4 C20.9626,11.7791 20.4468,11.2727 19.8144,11.2727 L12.9255,11.2727 Z M14.0737,19.8605 L11.3849,21.1804 C10.2099,21.7561 9.4811,22.9153 9.4811,24.205 L9.4811,39.0252 C10.1942,38.4434 11.0004,37.9799 11.8839,37.6701 L13.2277,31.0754 C13.7429,28.5495 15.3894,26.4028 17.633,25.3356 C18.4403,24.9508 19.2061,24.4279 20.0162,23.8747 C20.8224,23.3243 21.6824,22.7414 22.6321,22.2807 C22.3058,21.8205 21.8764,21.4363 21.355,21.1804 L18.6663,19.8605 L18.6663,15.7818 L14.0737,15.7818 L14.0737,19.8605 Z M8.3329,50.7273 C5.16768,50.7273 2.59219,53.2559 2.59219,56.3636 L2.59219,59.7455 L55.407,59.7455 L55.407,56.3636 C55.407,53.8185 53.6685,51.6878 51.3044,50.9898 C51.726,51.947 51.9626,53.0011 51.9626,54.1091 L51.9626,57.4909 L50.8144,57.4909 C47.8891,57.4909 45.3321,55.9431 43.9255,53.6434 C42.5189,55.9431 39.962,57.4909 37.0366,57.4909 L35.8885,57.4909 L35.8885,54.1091 C35.8885,50.1422 38.8884,46.8583 42.7774,46.3084 L42.7774,42.6877 L37.6729,46.0277 L36.3992,44.1519 L42.7774,39.9774 L42.7774,37.0514 L37.6729,40.3914 L36.3992,38.5155 L42.7774,34.3411 L42.7774,31.415 L37.6729,34.755 L36.3992,32.8792 L42.7774,28.7047 L42.7774,25.7787 L37.6729,29.1197 L36.3992,27.2439 L37.6886,26.4006 C37.3444,26.1777 37.0024,25.952 36.6717,25.7253 C35.1261,24.669 33.6656,23.6727 31.8722,23.6727 C31.1927,23.6727 30.1018,24.145 29.5737,24.4417 L28.9194,24.811 L28.3128,24.3685 C27.6575,23.8868 26.9836,23.6727 26.127,23.6727 C24.3336,23.6727 22.8732,24.669 21.3275,25.7242 C20.4804,26.3038 19.6031,26.9026 18.6343,27.3633 C17.6333,27.8398 16.8001,28.6249 16.2222,29.5955 L16.2218,29.5954 L16.221,29.5976 C16.2151,29.6075 16.2093,29.6173 16.2035,29.6272 C16.2055,29.6279 16.2076,29.6286 16.2096,29.6292 L15.4454,31.752 C15.4406,31.7505 15.4358,31.749 15.4309,31.7475 L14.3159,37.2226 C14.3607,37.2211 14.4044,37.2163 14.448,37.2115 C14.5003,37.2057 14.5525,37.2 14.6063,37.2 L26.7033,37.2 L26.7033,39.4545 L14.6063,39.4545 C12.0515,39.4545 9.8416,41.0689 9.1077,43.471 L7.5683,48.5113 C7.8211,48.4876 8.0745,48.4727 8.3329,48.4727 L19.8144,48.4727 L19.8144,50.7273 L8.3329,50.7273 Z" id="path-1"></path>
    </defs>
    <g id="Page-1" stroke="none" stroke-width="1" fill="none" fill-rule="evenodd">
        <g id="organicos">
            <path d="M8,43 L8,26 L19,26 C18.7373,26.1641 18.4629,26.3041 18.1885,26.4333 C16.1246,27.4166 14.705,29.3718 14.2518,31.5727 L12.7721,38.8788 L12.7838,39.0897 C10.6843,39.6048 8.9187,41.0329 8.0117,43 L8,43 Z" id="Path" fill="#33C5CC" fill-rule="nonzero"></path>
            <polygon id="Path" fill="#33C5CC" fill-rule="nonzero" points="40.9091 1.5625 45.5152 1 53 15.0625 53 17.3125 51.2727 19 35.1515 19 34 16.75 34.5758 12.8125"></polygon>
            <path d="M49.6663,48.4727 C54.098,48.4727 57.7033,52.0125 57.7033,56.3636 L57.7033,59.7455 L57.7033,62 L0.2959,62 L0.2959,59.7455 L0.2959,56.3636 C0.2959,53.1981 2.20873,50.4691 4.9552,49.2119 L6.90784,42.8226 C6.96259,42.6461 7.034,42.4798 7.1056,42.3131 C7.1323,42.2511 7.1589,42.189 7.1848,42.1263 L7.1848,24.205 C7.1848,22.0561 8.4008,20.1241 10.3585,19.1636 L11.7774,18.4668 L11.7774,15.7818 L9.4811,15.7818 L9.4811,12.4 C9.4811,10.5357 11.0267,9.0182 12.9255,9.0182 L19.8144,9.0182 C21.7132,9.0182 23.2589,10.5357 23.2589,12.4 L23.2589,15.7818 L20.9626,15.7818 L20.9626,18.4668 L22.3826,19.1636 C23.4495,19.6865 24.2943,20.5254 24.8527,21.5442 C25.2614,21.471 25.6813,21.4182 26.127,21.4182 C27.2151,21.4182 28.1845,21.6626 29.0708,22.1624 C29.7553,21.8453 30.8631,21.4182 31.8722,21.4182 C34.3843,21.4182 36.2943,22.7226 37.9806,23.8742 L37.983,23.8758 C38.6002,24.2975 39.1961,24.6806 39.8005,25.0185 L42.7774,23.0695 L42.7774,20.2909 L38.4556,20.2909 C35.7736,20.2909 33.5922,18.1492 33.5922,15.516 C33.5922,14.7784 33.7699,14.0403 34.1052,13.3809 L39.5751,2.63984 C40.4043,1.01113 42.071,0 43.9255,0 C45.7801,0 47.4468,1.01113 48.2759,2.63874 L53.7459,13.3798 C54.0811,14.0403 54.2589,14.7784 54.2589,15.516 C54.2589,18.1492 52.0775,20.2909 49.3955,20.2909 L45.0737,20.2909 L45.0737,23.0695 L51.4507,27.245 L50.177,29.1208 L45.0737,25.7798 L45.0737,28.7058 L51.4507,32.8814 L50.177,34.7572 L45.0737,31.4161 L45.0737,34.3422 L51.4507,38.5177 L50.177,40.3936 L45.0737,37.0525 L45.0737,39.9785 L51.4507,44.153 L50.177,46.0288 L45.0737,42.6877 L45.0737,46.3084 C46.7993,46.5517 48.3494,47.3295 49.5401,48.4727 L49.6663,48.4727 Z M36.1593,14.3887 C35.9827,14.7371 35.8885,15.1268 35.8885,15.516 C35.8885,16.9058 37.04,18.0364 38.4556,18.0364 L49.3955,18.0364 C50.8111,18.0364 51.9626,16.9058 51.9626,15.516 C51.9626,15.1268 51.8695,14.7371 51.6918,14.3887 L46.2218,3.64767 C45.9679,3.14954 45.5569,2.77965 45.0737,2.54077 L42.7774,2.54077 C42.2941,2.77965 41.8832,3.14954 41.6292,3.64767 L36.1593,14.3887 Z M49.6663,55.1224 L49.6663,54.1091 C49.6663,51.3867 47.6901,49.1096 45.0737,48.5867 L45.0737,49.6 C45.0737,52.3213 47.0499,54.5995 49.6663,55.1224 Z M38.1848,55.1224 C40.8012,54.5995 42.7774,52.3224 42.7774,49.6 L42.7774,48.5867 C40.161,49.1096 38.1848,51.3867 38.1848,54.1091 L38.1848,55.1224 Z M12.9255,11.2727 C12.2931,11.2727 11.7774,11.7791 11.7774,12.4 L11.7774,13.5273 L20.9626,13.5273 L20.9626,12.4 C20.9626,11.7791 20.4468,11.2727 19.8144,11.2727 L12.9255,11.2727 Z M14.0737,19.8605 L11.3849,21.1804 C10.2099,21.7561 9.4811,22.9153 9.4811,24.205 L9.4811,39.0252 C10.1942,38.4434 11.0004,37.9799 11.8839,37.6701 L13.2277,31.0754 C13.7429,28.5495 15.3894,26.4028 17.633,25.3356 C18.4403,24.9508 19.2061,24.4279 20.0162,23.8747 C20.8224,23.3243 21.6824,22.7414 22.6321,22.2807 C22.3058,21.8205 21.8764,21.4363 21.355,21.1804 L18.6663,19.8605 L18.6663,15.7818 L14.0737,15.7818 L14.0737,19.8605 Z M8.3329,50.7273 C5.16768,50.7273 2.59219,53.2559 2.59219,56.3636 L2.59219,59.7455 L55.407,59.7455 L55.407,56.3636 C55.407,53.8185 53.6685,51.6878 51.3044,50.9898 C51.726,51.947 51.9626,53.0011 51.9626,54.1091 L51.9626,57.4909 L50.8144,57.4909 C47.8891,57.4909 45.3321,55.9431 43.9255,53.6434 C42.5189,55.9431 39.962,57.4909 37.0366,57.4909 L35.8885,57.4909 L35.8885,54.1091 C35.8885,50.1422 38.8884,46.8583 42.7774,46.3084 L42.7774,42.6877 L37.6729,46.0277 L36.3992,44.1519 L42.7774,39.9774 L42.7774,37.0514 L37.6729,40.3914 L36.3992,38.5155 L42.7774,34.3411 L42.7774,31.415 L37.6729,34.755 L36.3992,32.8792 L42.7774,28.7047 L42.7774,25.7787 L37.6729,29.1197 L36.3992,27.2439 L37.6886,26.4006 C37.3444,26.1777 37.0024,25.952 36.6717,25.7253 C35.1261,24.669 33.6656,23.6727 31.8722,23.6727 C31.1927,23.6727 30.1018,24.145 29.5737,24.4417 L28.9194,24.811 L28.3128,24.3685 C27.6575,23.8868 26.9836,23.6727 26.127,23.6727 C24.3336,23.6727 22.8732,24.669 21.3275,25.7242 C20.4804,26.3038 19.6031,26.9026 18.6343,27.3633 C17.6333,27.8398 16.8001,28.6249 16.2222,29.5955 L16.2218,29.5954 L16.221,29.5976 C16.2151,29.6075 16.2093,29.6173 16.2035,29.6272 C16.2055,29.6279 16.2076,29.6286 16.2096,29.6292 L15.4454,31.752 C15.4406,31.7505 15.4358,31.749 15.4309,31.7475 L14.3159,37.2226 C14.3607,37.2211 14.4044,37.2163 14.448,37.2115 C14.5003,37.2057 14.5525,37.2 14.6063,37.2 L26.7033,37.2 L26.7033,39.4545 L14.6063,39.4545 C12.0515,39.4545 9.8416,41.0689 9.1077,43.471 L7.5683,48.5113 C7.8211,48.4876 8.0745,48.4727 8.3329,48.4727 L19.8144,48.4727 L19.8144,50.7273 L8.3329,50.7273 Z" id="Shape" fill="#34CBAB"></path>
            <g id="Clipped">
                <mask id="mask-2" fill="white">
                    <use xlink:href="#path-1"></use>
                </mask>
                <g id="Shape"></g>
                <path d="M57.7033,62 L57.7033,63 L58.7033,63 L58.7033,62 L57.7033,62 Z M0.29605,62 L-0.70395,62.0001 L-0.70388,63 L0.29605,63 L0.29605,62 Z M0.2959,59.7455 L-0.7041,59.7455 L-0.7041,59.7455 L0.2959,59.7455 Z M4.9552,49.2119 L5.37141,50.1212 L5.78016,49.9341 L5.91154,49.5042 L4.9552,49.2119 Z M6.90784,42.8226 L5.95273,42.5263 L5.9515,42.5303 L6.90784,42.8226 Z M7.1056,42.3131 L8.0244,42.7078 L8.0244,42.7078 L7.1056,42.3131 Z M7.1848,42.1263 L8.1093,42.5075 L8.1848,42.3244 L8.1848,42.1263 L7.1848,42.1263 Z M10.3585,19.1636 L10.7989,20.0614 L10.7993,20.0612 L10.3585,19.1636 Z M11.7774,18.4668 L12.2182,19.3644 L12.7774,19.0898 L12.7774,18.4668 L11.7774,18.4668 Z M11.7774,15.7818 L12.7774,15.7818 L12.7774,14.7818 L11.7774,14.7818 L11.7774,15.7818 Z M9.4811,15.7818 L8.4811,15.7818 L8.4811,16.7818 L9.4811,16.7818 L9.4811,15.7818 Z M23.2589,15.7818 L23.2589,16.7818 L24.2589,16.7818 L24.2589,15.7818 L23.2589,15.7818 Z M20.9626,15.7818 L20.9626,14.7818 L19.9626,14.7818 L19.9626,15.7818 L20.9626,15.7818 Z M20.9626,18.4668 L19.9626,18.4668 L19.9626,19.09 L20.522,19.3645 L20.9626,18.4668 Z M22.3826,19.1636 L21.9421,20.0614 L21.9425,20.0616 L22.3826,19.1636 Z M24.8527,21.5442 L23.9758,22.0248 L24.3213,22.6553 L25.029,22.5286 L24.8527,21.5442 Z M29.0708,22.1624 L28.5796,23.0334 L29.026,23.2851 L29.4911,23.0698 L29.0708,22.1624 Z M37.9806,23.8742 L38.5449,23.0487 L38.5446,23.0484 L37.9806,23.8742 Z M37.983,23.8758 L37.4186,24.7014 L37.4189,24.7016 L37.983,23.8758 Z M39.8005,25.0185 L39.3124,25.8913 L39.8413,26.1871 L40.3483,25.8551 L39.8005,25.0185 Z M42.7774,23.0695 L43.3251,23.9061 L43.7774,23.61 L43.7774,23.0695 L42.7774,23.0695 Z M42.7774,20.2909 L43.7774,20.2909 L43.7774,19.2909 L42.7774,19.2909 L42.7774,20.2909 Z M34.1052,13.3809 L33.2141,12.9271 L33.2138,12.9277 L34.1052,13.3809 Z M39.5751,2.63984 L40.4662,3.09365 L40.4663,3.09352 L39.5751,2.63984 Z M48.2759,2.63874 L49.167,2.18494 L49.167,2.18482 L48.2759,2.63874 Z M53.7459,13.3798 L54.6376,12.9272 L54.637,12.926 L53.7459,13.3798 Z M45.0737,20.2909 L45.0737,19.2909 L44.0737,19.2909 L44.0737,20.2909 L45.0737,20.2909 Z M45.0737,23.0695 L44.0737,23.0695 L44.0737,23.61 L44.5259,23.9061 L45.0737,23.0695 Z M51.4507,27.245 L52.278,27.8067 L52.8493,26.9654 L51.9985,26.4084 L51.4507,27.245 Z M50.177,29.1208 L49.6292,29.9575 L50.4519,30.4961 L51.0043,29.6826 L50.177,29.1208 Z M45.0737,25.7798 L45.6214,24.9431 L44.0737,23.9298 L44.0737,25.7798 L45.0737,25.7798 Z M45.0737,28.7058 L44.0737,28.7058 L44.0737,29.2463 L44.5259,29.5424 L45.0737,28.7058 Z M51.4507,32.8814 L52.278,33.4431 L52.8493,32.6018 L51.9985,32.0447 L51.4507,32.8814 Z M50.177,34.7572 L49.6292,35.5939 L50.4519,36.1325 L51.0043,35.319 L50.177,34.7572 Z M45.0737,31.4161 L45.6214,30.5795 L44.0737,29.5662 L44.0737,31.4161 L45.0737,31.4161 Z M45.0737,34.3422 L44.0737,34.3422 L44.0737,34.8827 L44.5259,35.1788 L45.0737,34.3422 Z M51.4507,38.5177 L52.278,39.0795 L52.8493,38.2382 L51.9985,37.6811 L51.4507,38.5177 Z M50.177,40.3936 L49.6292,41.2302 L50.4519,41.7688 L51.0043,40.9553 L50.177,40.3936 Z M45.0737,37.0525 L45.6214,36.2158 L44.0737,35.2025 L44.0737,37.0525 L45.0737,37.0525 Z M45.0737,39.9785 L44.0737,39.9785 L44.0737,40.5191 L44.526,40.8152 L45.0737,39.9785 Z M51.4507,44.153 L52.278,44.7147 L52.8494,43.8733 L51.9984,43.3163 L51.4507,44.153 Z M50.177,46.0288 L49.6292,46.8655 L50.4519,47.4041 L51.0043,46.5906 L50.177,46.0288 Z M45.0737,42.6877 L45.6214,41.8511 L44.0737,40.8378 L44.0737,42.6877 L45.0737,42.6877 Z M45.0737,46.3084 L44.0737,46.3084 L44.0737,47.1773 L44.9341,47.2987 L45.0737,46.3084 Z M49.5401,48.4727 L48.8476,49.1941 L49.1378,49.4727 L49.5401,49.4727 L49.5401,48.4727 Z M36.1593,14.3887 L35.2682,13.9349 L35.2673,13.9366 L36.1593,14.3887 Z M51.6918,14.3887 L50.8007,14.8425 L50.801,14.8431 L51.6918,14.3887 Z M46.2218,3.64767 L47.1129,3.19387 L47.1127,3.19348 L46.2218,3.64767 Z M45.0737,2.54077 L45.5168,1.64431 L45.3073,1.54077 L45.0737,1.54077 L45.0737,2.54077 Z M42.7774,2.54077 L42.7774,1.54077 L42.5437,1.54077 L42.3342,1.64431 L42.7774,2.54077 Z M41.6292,3.64767 L40.7383,3.19348 L40.7381,3.19387 L41.6292,3.64767 Z M49.6663,55.1224 L49.4703,56.103 L50.6663,56.3421 L50.6663,55.1224 L49.6663,55.1224 Z M45.0737,48.5867 L45.2697,47.6061 L44.0737,47.367 L44.0737,48.5867 L45.0737,48.5867 Z M38.1848,55.1224 L37.1848,55.1224 L37.1848,56.3421 L38.3808,56.103 L38.1848,55.1224 Z M42.7774,48.5867 L43.7774,48.5867 L43.7774,47.367 L42.5814,47.6061 L42.7774,48.5867 Z M11.7774,13.5273 L10.7774,13.5273 L10.7774,14.5273 L11.7774,14.5273 L11.7774,13.5273 Z M20.9626,13.5273 L20.9626,14.5273 L21.9626,14.5273 L21.9626,13.5273 L20.9626,13.5273 Z M11.3849,21.1804 L11.8249,22.0784 L11.8256,22.0781 L11.3849,21.1804 Z M14.0737,19.8605 L14.5143,20.7581 L15.0737,20.4836 L15.0737,19.8605 L14.0737,19.8605 Z M9.4811,39.0252 L8.4811,39.0252 L8.4811,41.1317 L10.1132,39.8 L9.4811,39.0252 Z M11.8839,37.6701 L12.2149,38.6137 L12.7504,38.4259 L12.8638,37.8697 L11.8839,37.6701 Z M13.2277,31.0754 L12.2479,30.8756 L12.2478,30.8757 L13.2277,31.0754 Z M17.633,25.3356 L18.0626,26.2386 L18.0633,26.2383 L17.633,25.3356 Z M20.0162,23.8747 L19.4524,23.0489 L19.4523,23.0489 L20.0162,23.8747 Z M22.6321,22.2807 L23.0686,23.1804 L24.1306,22.6652 L23.4478,21.7023 L22.6321,22.2807 Z M21.355,21.1804 L21.7957,20.2827 L21.355,21.1804 Z M18.6663,19.8605 L17.6663,19.8605 L17.6663,20.4836 L18.2256,20.7581 L18.6663,19.8605 Z M18.6663,15.7818 L19.6663,15.7818 L19.6663,14.7818 L18.6663,14.7818 L18.6663,15.7818 Z M14.0737,15.7818 L14.0737,14.7818 L13.0737,14.7818 L13.0737,15.7818 L14.0737,15.7818 Z M2.59219,59.7455 L1.59219,59.7455 L1.59219,60.7455 L2.59219,60.7455 L2.59219,59.7455 Z M55.407,59.7455 L55.407,60.7455 L56.407,60.7455 L56.407,59.7455 L55.407,59.7455 Z M51.3044,50.9898 L51.5875,50.0307 L49.5205,49.4205 L50.3892,51.3929 L51.3044,50.9898 Z M51.9626,57.4909 L51.9626,58.4909 L52.9626,58.4909 L52.9626,57.4909 L51.9626,57.4909 Z M43.9255,53.6434 L44.7786,53.1216 L43.9255,51.7269 L43.0725,53.1216 L43.9255,53.6434 Z M35.8885,57.4909 L34.8885,57.4909 L34.8885,58.4909 L35.8885,58.4909 L35.8885,57.4909 Z M42.7774,46.3084 L42.9174,47.2986 L43.7774,47.177 L43.7774,46.3084 L42.7774,46.3084 Z M42.7774,42.6877 L43.7774,42.6877 L43.7774,40.8384 L42.2298,41.851 L42.7774,42.6877 Z M37.6729,46.0277 L36.8456,46.5895 L37.3979,47.4028 L38.2205,46.8645 L37.6729,46.0277 Z M36.3992,44.1519 L35.8516,43.3152 L35.0005,43.8722 L35.5719,44.7136 L36.3992,44.1519 Z M42.7774,39.9774 L43.325,40.8142 L43.7774,40.5181 L43.7774,39.9774 L42.7774,39.9774 Z M42.7774,37.0514 L43.7774,37.0514 L43.7774,35.202 L42.2299,36.2146 L42.7774,37.0514 Z M37.6729,40.3914 L36.8456,40.9531 L37.3979,41.7664 L38.2205,41.2282 L37.6729,40.3914 Z M36.3992,38.5155 L35.8516,37.6788 L35.0005,38.2358 L35.5719,39.0773 L36.3992,38.5155 Z M42.7774,34.3411 L43.325,35.1778 L43.7774,34.8817 L43.7774,34.3411 L42.7774,34.3411 Z M42.7774,31.415 L43.7774,31.415 L43.7774,29.5656 L42.2299,30.5782 L42.7774,31.415 Z M37.6729,34.755 L36.8456,35.3168 L37.3979,36.13 L38.2205,35.5918 L37.6729,34.755 Z M36.3992,32.8792 L35.8516,32.0424 L35.0005,32.5994 L35.5719,33.4409 L36.3992,32.8792 Z M42.7774,28.7047 L43.325,29.5414 L43.7774,29.2454 L43.7774,28.7047 L42.7774,28.7047 Z M42.7774,25.7787 L43.7774,25.7787 L43.7774,23.9289 L42.2297,24.942 L42.7774,25.7787 Z M37.6729,29.1197 L36.8456,29.6815 L37.398,30.4949 L38.2206,29.9564 L37.6729,29.1197 Z M36.3992,27.2439 L35.8519,26.407 L35.0003,26.9639 L35.5719,27.8056 L36.3992,27.2439 Z M37.6886,26.4006 L38.236,27.2376 L39.522,26.3965 L38.2322,25.5613 L37.6886,26.4006 Z M36.6717,25.7253 L37.2372,24.9005 L37.2359,24.8996 L36.6717,25.7253 Z M29.5737,24.4417 L29.0839,23.5698 L29.0821,23.5709 L29.5737,24.4417 Z M28.9194,24.811 L28.3301,25.6189 L28.8503,25.9984 L29.411,25.6818 L28.9194,24.811 Z M28.3128,24.3685 L27.7207,25.1743 L27.7235,25.1763 L28.3128,24.3685 Z M21.3275,25.7242 L20.7637,24.8983 L20.7628,24.8989 L21.3275,25.7242 Z M18.6343,27.3633 L18.2048,26.4603 L18.2046,26.4604 L18.6343,27.3633 Z M16.2222,29.5955 L15.8688,30.531 L16.6528,30.8271 L17.0815,30.1071 L16.2222,29.5955 Z M16.2218,29.5954 L16.5752,28.6599 L15.6249,28.3009 L15.2809,29.2567 L16.2218,29.5954 Z M16.221,29.5976 L17.0804,30.1088 L17.1294,30.0265 L17.1619,29.9363 L16.221,29.5976 Z M16.2035,29.6272 L15.3412,29.1208 L14.7109,30.1941 L15.8947,30.5784 L16.2035,29.6272 Z M16.2096,29.6292 L17.1505,29.9679 L17.4997,28.998 L16.5196,28.6785 L16.2096,29.6292 Z M15.4454,31.752 L15.1466,32.7063 L16.0616,32.9928 L16.3863,32.0907 L15.4454,31.752 Z M15.4309,31.7475 L15.7258,30.792 L14.6713,30.4665 L14.4511,31.5479 L15.4309,31.7475 Z M14.3159,37.2226 L13.336,37.023 L13.0831,38.2644 L14.3493,38.222 L14.3159,37.2226 Z M14.448,37.2115 L14.3388,36.2175 L14.3388,36.2175 L14.448,37.2115 Z M26.7033,37.2 L27.7033,37.2 L27.7033,36.2 L26.7033,36.2 L26.7033,37.2 Z M26.7033,39.4545 L26.7033,40.4545 L27.7033,40.4545 L27.7033,39.4545 L26.7033,39.4545 Z M9.1077,43.471 L8.1513,43.1788 L8.1513,43.1789 L9.1077,43.471 Z M7.5683,48.5113 L6.61187,48.2191 L6.17607,49.646 L7.6615,49.5069 L7.5683,48.5113 Z M19.8144,48.4727 L20.8144,48.4727 L20.8144,47.4727 L19.8144,47.4727 L19.8144,48.4727 Z M19.8144,50.7273 L19.8144,51.7273 L20.8144,51.7273 L20.8144,50.7273 L19.8144,50.7273 Z M58.7033,56.3636 C58.7033,51.443 54.6329,47.4727 49.6663,47.4727 L49.6663,49.4727 C53.5631,49.4727 56.7033,52.582 56.7033,56.3636 L58.7033,56.3636 Z M58.7033,59.7455 L58.7033,56.3636 L56.7033,56.3636 L56.7033,59.7455 L58.7033,59.7455 Z M58.7033,62 L58.7033,59.7455 L56.7033,59.7455 L56.7033,62 L58.7033,62 Z M0.29605,63 L57.7033,63 L57.7033,61 L0.29605,61 L0.29605,63 Z M-0.7041,59.7455 L-0.70395,62.0001 L1.29605,61.9999 L1.2959,59.7454 L-0.7041,59.7455 Z M-0.7041,56.3636 L-0.7041,59.7455 L1.2959,59.7455 L1.2959,56.3636 L-0.7041,56.3636 Z M4.539,48.3027 C1.46045,49.7119 -0.7041,52.7816 -0.7041,56.3636 L1.2959,56.3636 C1.2959,53.6146 2.95702,51.2264 5.37141,50.1212 L4.539,48.3027 Z M5.9515,42.5303 L3.99887,48.9197 L5.91154,49.5042 L7.8642,43.1149 L5.9515,42.5303 Z M6.18682,41.9184 C6.11838,42.0777 6.02556,42.2915 5.95273,42.5263 L7.8629,43.1189 C7.8996,43.0006 7.9497,42.8819 8.0244,42.7078 L6.18682,41.9184 Z M6.26027,41.7452 C6.23769,41.7999 6.21394,41.8553 6.18682,41.9184 L8.0244,42.7078 C8.0506,42.6469 8.0802,42.5781 8.1093,42.5075 L6.26027,41.7452 Z M6.18479,24.205 L6.18479,42.1263 L8.18479,42.1263 L8.18479,24.205 L6.18479,24.205 Z M9.918,18.2659 C7.6242,19.3913 6.18479,21.6676 6.18479,24.205 L8.18479,24.205 C8.18479,22.4446 9.1774,20.857 10.7989,20.0614 L9.918,18.2659 Z M11.3366,17.5692 L9.9176,18.266 L10.7993,20.0612 L12.2182,19.3644 L11.3366,17.5692 Z M10.7774,15.7818 L10.7774,18.4668 L12.7774,18.4668 L12.7774,15.7818 L10.7774,15.7818 Z M9.4811,16.7818 L11.7774,16.7818 L11.7774,14.7818 L9.4811,14.7818 L9.4811,16.7818 Z M8.4811,12.4 L8.4811,15.7818 L10.4811,15.7818 L10.4811,12.4 L8.4811,12.4 Z M12.9255,8.01818 C10.4918,8.01818 8.4811,9.9662 8.4811,12.4 L10.4811,12.4 C10.4811,11.1052 11.5616,10.0182 12.9255,10.0182 L12.9255,8.01818 Z M19.8144,8.01818 L12.9255,8.01818 L12.9255,10.0182 L19.8144,10.0182 L19.8144,8.01818 Z M24.2589,12.4 C24.2589,9.9662 22.2481,8.01818 19.8144,8.01818 L19.8144,10.0182 C21.1783,10.0182 22.2589,11.1052 22.2589,12.4 L24.2589,12.4 Z M24.2589,15.7818 L24.2589,12.4 L22.2589,12.4 L22.2589,15.7818 L24.2589,15.7818 Z M20.9626,16.7818 L23.2589,16.7818 L23.2589,14.7818 L20.9626,14.7818 L20.9626,16.7818 Z M21.9626,18.4668 L21.9626,15.7818 L19.9626,15.7818 L19.9626,18.4668 L21.9626,18.4668 Z M22.8231,18.2659 L21.4031,17.5691 L20.522,19.3645 L21.9421,20.0614 L22.8231,18.2659 Z M25.7296,21.0636 C25.0777,19.8741 24.0849,18.8843 22.8227,18.2657 L21.9425,20.0616 C22.814,20.4888 23.5109,21.1766 23.9758,22.0248 L25.7296,21.0636 Z M26.127,20.4182 C25.6021,20.4182 25.1194,20.4805 24.6764,20.5599 L25.029,22.5286 C25.4034,22.4615 25.7605,22.4182 26.127,22.4182 L26.127,20.4182 Z M29.562,21.2913 C28.5148,20.7008 27.3742,20.4182 26.127,20.4182 L26.127,22.4182 C27.0561,22.4182 27.8541,22.6243 28.5796,23.0334 L29.562,21.2913 Z M31.8722,20.4182 C30.6337,20.4182 29.3594,20.9266 28.6505,21.255 L29.4911,23.0698 C30.1513,22.764 31.0925,22.4182 31.8722,22.4182 L31.8722,20.4182 Z M38.5446,23.0484 C36.8876,21.9168 34.7352,20.4182 31.8722,20.4182 L31.8722,22.4182 C34.0333,22.4182 35.7009,23.5283 37.4166,24.7 L38.5446,23.0484 Z M38.5473,23.0503 L38.5449,23.0487 L37.4163,24.6998 L37.4186,24.7014 L38.5473,23.0503 Z M40.2886,24.1457 C39.7198,23.8277 39.1508,23.4625 38.547,23.0501 L37.4189,24.7016 C38.0496,25.1324 38.6725,25.5334 39.3124,25.8913 L40.2886,24.1457 Z M42.2296,22.2328 L39.2527,24.1819 L40.3483,25.8551 L43.3251,23.9061 L42.2296,22.2328 Z M41.7774,20.2909 L41.7774,23.0695 L43.7774,23.0695 L43.7774,20.2909 L41.7774,20.2909 Z M38.4556,21.2909 L42.7774,21.2909 L42.7774,19.2909 L38.4556,19.2909 L38.4556,21.2909 Z M32.5922,15.516 C32.5922,18.7187 35.2387,21.2909 38.4556,21.2909 L38.4556,19.2909 C36.3085,19.2909 34.5922,17.5797 34.5922,15.516 L32.5922,15.516 Z M33.2138,12.9277 C32.8076,13.7266 32.5922,14.6199 32.5922,15.516 L34.5922,15.516 C34.5922,14.9369 34.7323,14.354 34.9966,13.8341 L33.2138,12.9277 Z M38.684,2.18604 L33.2141,12.9271 L34.9963,13.8347 L40.4662,3.09365 L38.684,2.18604 Z M43.9255,-1 C41.702,-1 39.687,0.21588 38.684,2.18616 L40.4663,3.09352 C41.1216,1.80639 42.44,1 43.9255,1 L43.9255,-1 Z M49.167,2.18482 C48.1639,0.21577 46.1489,-1 43.9255,-1 L43.9255,1 C45.4112,1 46.7297,1.80649 47.3849,3.09267 L49.167,2.18482 Z M54.637,12.926 L49.167,2.18494 L47.3848,3.09255 L52.8548,13.8336 L54.637,12.926 Z M55.2589,15.516 C55.2589,14.6198 55.0434,13.7267 54.6376,12.9272 L52.8542,13.8324 C53.1189,14.3538 53.2589,14.937 53.2589,15.516 L55.2589,15.516 Z M49.3955,21.2909 C52.6124,21.2909 55.2589,18.7187 55.2589,15.516 L53.2589,15.516 C53.2589,17.5797 51.5426,19.2909 49.3955,19.2909 L49.3955,21.2909 Z M45.0737,21.2909 L49.3955,21.2909 L49.3955,19.2909 L45.0737,19.2909 L45.0737,21.2909 Z M46.0737,23.0695 L46.0737,20.2909 L44.0737,20.2909 L44.0737,23.0695 L46.0737,23.0695 Z M51.9985,26.4084 L45.6215,22.2328 L44.5259,23.9061 L50.9029,28.0816 L51.9985,26.4084 Z M51.0043,29.6826 L52.278,27.8067 L50.6234,26.6832 L49.3497,28.5591 L51.0043,29.6826 Z M44.5259,26.6164 L49.6292,29.9575 L50.7247,28.2842 L45.6214,24.9431 L44.5259,26.6164 Z M46.0737,28.7058 L46.0737,25.7798 L44.0737,25.7798 L44.0737,28.7058 L46.0737,28.7058 Z M51.9985,32.0447 L45.6215,27.8692 L44.5259,29.5424 L50.9029,33.718 L51.9985,32.0447 Z M51.0043,35.319 L52.278,33.4431 L50.6234,32.3196 L49.3497,34.1955 L51.0043,35.319 Z M44.5259,32.2528 L49.6292,35.5939 L50.7247,33.9206 L45.6214,30.5795 L44.5259,32.2528 Z M46.0737,34.3422 L46.0737,31.4161 L44.0737,31.4161 L44.0737,34.3422 L46.0737,34.3422 Z M51.9985,37.6811 L45.6215,33.5056 L44.5259,35.1788 L50.9029,39.3543 L51.9985,37.6811 Z M51.0043,40.9553 L52.278,39.0795 L50.6234,37.956 L49.3497,39.8318 L51.0043,40.9553 Z M44.5259,37.8891 L49.6292,41.2302 L50.7247,39.5569 L45.6214,36.2158 L44.5259,37.8891 Z M46.0737,39.9785 L46.0737,37.0525 L44.0737,37.0525 L44.0737,39.9785 L46.0737,39.9785 Z M51.9984,43.3163 L45.6214,39.1419 L44.526,40.8152 L50.903,44.9897 L51.9984,43.3163 Z M51.0043,46.5906 L52.278,44.7147 L50.6234,43.5912 L49.3497,45.4671 L51.0043,46.5906 Z M44.5259,43.5244 L49.6292,46.8655 L50.7247,45.1922 L45.6214,41.8511 L44.5259,43.5244 Z M46.0737,46.3084 L46.0737,42.6877 L44.0737,42.6877 L44.0737,46.3084 L46.0737,46.3084 Z M50.2327,47.7514 C48.8927,46.4649 47.15,45.5913 45.2133,45.3182 L44.9341,47.2987 C46.4486,47.5122 47.806,48.1941 48.8476,49.1941 L50.2327,47.7514 Z M49.6663,47.4727 L49.5401,47.4727 L49.5401,49.4727 L49.6663,49.4727 L49.6663,47.4727 Z M36.8885,15.516 C36.8885,15.286 36.9447,15.051 37.0512,14.8408 L35.2673,13.9366 C35.0206,14.4232 34.8885,14.9676 34.8885,15.516 L36.8885,15.516 Z M38.4556,17.0364 C37.5749,17.0364 36.8885,16.3363 36.8885,15.516 L34.8885,15.516 C34.8885,17.4753 36.5051,19.0364 38.4556,19.0364 L38.4556,17.0364 Z M49.3955,17.0364 L38.4556,17.0364 L38.4556,19.0364 L49.3955,19.0364 L49.3955,17.0364 Z M50.9626,15.516 C50.9626,16.3363 50.2761,17.0364 49.3955,17.0364 L49.3955,19.0364 C51.346,19.0364 52.9626,17.4753 52.9626,15.516 L50.9626,15.516 Z M50.801,14.8431 C50.9067,15.0503 50.9626,15.2842 50.9626,15.516 L52.9626,15.516 C52.9626,14.9694 52.8323,14.424 52.5826,13.9343 L50.801,14.8431 Z M45.3307,4.10148 L50.8007,14.8425 L52.5829,13.9349 L47.1129,3.19387 L45.3307,4.10148 Z M44.6305,3.43722 C44.948,3.59414 45.1876,3.82084 45.3309,4.10187 L47.1127,3.19348 C46.7481,2.47823 46.1659,1.96516 45.5168,1.64431 L44.6305,3.43722 Z M42.7774,3.54077 L45.0737,3.54077 L45.0737,1.54077 L42.7774,1.54077 L42.7774,3.54077 Z M42.5201,4.10187 C42.6634,3.82084 42.9031,3.59414 43.2205,3.43722 L42.3342,1.64431 C41.6852,1.96516 41.103,2.47823 40.7383,3.19348 L42.5201,4.10187 Z M37.0504,14.8425 L42.5203,4.10148 L40.7381,3.19387 L35.2682,13.9349 L37.0504,14.8425 Z M48.6663,54.1091 L48.6663,55.1224 L50.6663,55.1224 L50.6663,54.1091 L48.6663,54.1091 Z M44.8777,49.5673 C47.0491,50.0012 48.6663,51.886 48.6663,54.1091 L50.6663,54.1091 C50.6663,50.8874 48.3311,48.2179 45.2697,47.6061 L44.8777,49.5673 Z M46.0737,49.6 L46.0737,48.5867 L44.0737,48.5867 L44.0737,49.6 L46.0737,49.6 Z M49.8622,54.1418 C47.691,53.7079 46.0737,51.8222 46.0737,49.6 L44.0737,49.6 C44.0737,52.8205 46.4087,55.4912 49.4703,56.103 L49.8622,54.1418 Z M41.7774,49.6 C41.7774,51.8231 40.1602,53.7079 37.9888,54.1418 L38.3808,56.103 C41.4422,55.4912 43.7774,52.8217 43.7774,49.6 L41.7774,49.6 Z M41.7774,48.5867 L41.7774,49.6 L43.7774,49.6 L43.7774,48.5867 L41.7774,48.5867 Z M39.1848,54.1091 C39.1848,51.886 40.802,50.0012 42.9734,49.5673 L42.5814,47.6061 C39.52,48.2179 37.1848,50.8874 37.1848,54.1091 L39.1848,54.1091 Z M39.1848,55.1224 L39.1848,54.1091 L37.1848,54.1091 L37.1848,55.1224 L39.1848,55.1224 Z M12.7774,12.4 C12.7774,12.3486 12.8281,12.2727 12.9255,12.2727 L12.9255,10.2727 C11.7582,10.2727 10.7774,11.2096 10.7774,12.4 L12.7774,12.4 Z M12.7774,13.5273 L12.7774,12.4 L10.7774,12.4 L10.7774,13.5273 L12.7774,13.5273 Z M20.9626,12.5273 L11.7774,12.5273 L11.7774,14.5273 L20.9626,14.5273 L20.9626,12.5273 Z M19.9626,12.4 L19.9626,13.5273 L21.9626,13.5273 L21.9626,12.4 L19.9626,12.4 Z M19.8144,12.2727 C19.9119,12.2727 19.9626,12.3486 19.9626,12.4 L21.9626,12.4 C21.9626,11.2096 20.9817,10.2727 19.8144,10.2727 L19.8144,12.2727 Z M12.9255,12.2727 L19.8144,12.2727 L19.8144,10.2727 L12.9255,10.2727 L12.9255,12.2727 Z M11.8256,22.0781 L14.5143,20.7581 L13.633,18.9628 L10.9443,20.2827 L11.8256,22.0781 Z M10.4811,24.205 C10.4811,23.3034 10.9869,22.489 11.8249,22.0784 L10.945,20.2824 C9.4329,21.0233 8.4811,22.5273 8.4811,24.205 L10.4811,24.205 Z M10.4811,39.0252 L10.4811,24.205 L8.4811,24.205 L8.4811,39.0252 L10.4811,39.0252 Z M11.5529,36.7264 C10.554,37.0768 9.6468,37.5994 8.8489,38.2504 L10.1132,39.8 C10.7416,39.2874 11.4468,38.8831 12.2149,38.6137 L11.5529,36.7264 Z M12.2478,30.8757 L10.904,37.4704 L12.8638,37.8697 L14.2076,31.2751 L12.2478,30.8757 Z M17.2035,24.4325 C14.6636,25.6408 12.823,28.0558 12.2479,30.8756 L14.2075,31.2753 C14.6628,29.0432 16.1153,27.1649 18.0626,26.2386 L17.2035,24.4325 Z M19.4523,23.0489 C18.6288,23.6113 17.9277,24.0874 17.2028,24.4328 L18.0633,26.2383 C18.953,25.8143 19.7835,25.2446 20.5802,24.7006 L19.4523,23.0489 Z M22.1956,21.381 C21.1701,21.8785 20.2527,22.5024 19.4524,23.0489 L20.5801,24.7006 C21.3921,24.1462 22.1947,23.6043 23.0686,23.1804 L22.1956,21.381 Z M20.9143,22.0781 C21.273,22.2542 21.5778,22.5227 21.8163,22.8591 L23.4478,21.7023 C23.0338,21.1184 22.4797,20.6185 21.7957,20.2827 L20.9143,22.0781 Z M18.2256,20.7581 L20.9143,22.0781 L21.7957,20.2827 L19.1069,18.9628 L18.2256,20.7581 Z M17.6663,15.7818 L17.6663,19.8605 L19.6663,19.8605 L19.6663,15.7818 L17.6663,15.7818 Z M14.0737,16.7818 L18.6663,16.7818 L18.6663,14.7818 L14.0737,14.7818 L14.0737,16.7818 Z M15.0737,19.8605 L15.0737,15.7818 L13.0737,15.7818 L13.0737,19.8605 L15.0737,19.8605 Z M3.59219,56.3636 C3.59219,53.8254 5.70259,51.7273 8.3329,51.7273 L8.3329,49.7273 C4.63277,49.7273 1.59219,52.6864 1.59219,56.3636 L3.59219,56.3636 Z M3.59219,59.7455 L3.59219,56.3636 L1.59219,56.3636 L1.59219,59.7455 L3.59219,59.7455 Z M55.407,58.7455 L2.59219,58.7455 L2.59219,60.7455 L55.407,60.7455 L55.407,58.7455 Z M54.407,56.3636 L54.407,59.7455 L56.407,59.7455 L56.407,56.3636 L54.407,56.3636 Z M51.0213,51.9489 C52.9919,52.5307 54.407,54.2938 54.407,56.3636 L56.407,56.3636 C56.407,53.3431 54.3452,50.8449 51.5875,50.0307 L51.0213,51.9489 Z M52.9626,54.1091 C52.9626,52.8572 52.695,51.6662 52.2196,50.5868 L50.3892,51.3929 C50.757,52.2278 50.9626,53.145 50.9626,54.1091 L52.9626,54.1091 Z M52.9626,57.4909 L52.9626,54.1091 L50.9626,54.1091 L50.9626,57.4909 L52.9626,57.4909 Z M50.8144,58.4909 L51.9626,58.4909 L51.9626,56.4909 L50.8144,56.4909 L50.8144,58.4909 Z M43.0725,54.1652 C44.6543,56.7514 47.5287,58.4909 50.8144,58.4909 L50.8144,56.4909 C48.2495,56.4909 46.01,55.1348 44.7786,53.1216 L43.0725,54.1652 Z M37.0366,58.4909 C40.3224,58.4909 43.1968,56.7514 44.7786,54.1652 L43.0725,53.1216 C41.8411,55.1348 39.6015,56.4909 37.0366,56.4909 L37.0366,58.4909 Z M35.8885,58.4909 L37.0366,58.4909 L37.0366,56.4909 L35.8885,56.4909 L35.8885,58.4909 Z M34.8885,54.1091 L34.8885,57.4909 L36.8885,57.4909 L36.8885,54.1091 L34.8885,54.1091 Z M42.6374,45.3183 C38.2785,45.9346 34.8885,49.6207 34.8885,54.1091 L36.8885,54.1091 C36.8885,50.6636 39.4983,47.782 42.9174,47.2986 L42.6374,45.3183 Z M41.7774,42.6877 L41.7774,46.3084 L43.7774,46.3084 L43.7774,42.6877 L41.7774,42.6877 Z M38.2205,46.8645 L43.3249,43.5245 L42.2298,41.851 L37.1254,45.191 L38.2205,46.8645 Z M35.5719,44.7136 L36.8456,46.5895 L38.5003,45.466 L37.2265,43.5901 L35.5719,44.7136 Z M42.2298,39.1407 L35.8516,43.3152 L36.9468,44.9886 L43.325,40.8142 L42.2298,39.1407 Z M41.7774,37.0514 L41.7774,39.9774 L43.7774,39.9774 L43.7774,37.0514 L41.7774,37.0514 Z M38.2205,41.2282 L43.3249,37.8882 L42.2299,36.2146 L37.1254,39.5546 L38.2205,41.2282 Z M35.5719,39.0773 L36.8456,40.9531 L38.5002,39.8296 L37.2265,37.9538 L35.5719,39.0773 Z M42.2298,33.5044 L35.8516,37.6788 L36.9468,39.3522 L43.325,35.1778 L42.2298,33.5044 Z M41.7774,31.415 L41.7774,34.3411 L43.7774,34.3411 L43.7774,31.415 L41.7774,31.415 Z M38.2205,35.5918 L43.3249,32.2518 L42.2299,30.5782 L37.1254,33.9182 L38.2205,35.5918 Z M35.5719,33.4409 L36.8456,35.3168 L38.5002,34.1933 L37.2265,32.3174 L35.5719,33.4409 Z M42.2298,27.868 L35.8516,32.0424 L36.9468,33.7159 L43.325,29.5414 L42.2298,27.868 Z M41.7774,25.7787 L41.7774,28.7047 L43.7774,28.7047 L43.7774,25.7787 L41.7774,25.7787 Z M38.2206,29.9564 L43.325,26.6154 L42.2297,24.942 L37.1253,28.283 L38.2206,29.9564 Z M35.5719,27.8056 L36.8456,29.6815 L38.5002,28.558 L37.2265,26.6821 L35.5719,27.8056 Z M37.1413,25.5637 L35.8519,26.407 L36.9465,28.0808 L38.236,27.2376 L37.1413,25.5637 Z M36.1062,26.55 C36.4466,26.7834 36.7964,27.0142 37.1451,27.24 L38.2322,25.5613 C37.8925,25.3413 37.5583,25.1207 37.2372,24.9005 L36.1062,26.55 Z M31.8722,24.6727 C33.304,24.6727 34.5081,25.4579 36.1075,26.5509 L37.2359,24.8996 C35.744,23.8801 34.0272,22.6727 31.8722,22.6727 L31.8722,24.6727 Z M30.0635,25.3135 C30.2799,25.1919 30.6358,25.022 31.01,24.885 C31.4085,24.739 31.715,24.6727 31.8722,24.6727 L31.8722,22.6727 C31.35,22.6727 30.7712,22.8425 30.3223,23.0069 C29.8492,23.1802 29.3955,23.3947 29.0839,23.5698 L30.0635,25.3135 Z M29.411,25.6818 L30.0653,25.3125 L29.0821,23.5709 L28.4278,23.9402 L29.411,25.6818 Z M27.7235,25.1763 L28.3301,25.6189 L29.5088,24.0031 L28.9022,23.5606 L27.7235,25.1763 Z M26.127,24.6727 C26.7832,24.6727 27.2468,24.8261 27.7207,25.1743 L28.905,23.5627 C28.0681,22.9476 27.1841,22.6727 26.127,22.6727 L26.127,24.6727 Z M21.8913,26.5501 C23.4911,25.458 24.695,24.6727 26.127,24.6727 L26.127,22.6727 C23.9721,22.6727 22.2552,23.88 20.7637,24.8983 L21.8913,26.5501 Z M19.0638,28.2664 C20.1142,27.7668 21.0541,27.1229 21.8922,26.5495 L20.7628,24.8989 C19.9068,25.4846 19.0919,26.0384 18.2048,26.4603 L19.0638,28.2664 Z M17.0815,30.1071 C17.5653,29.2944 18.2542,28.6518 19.0641,28.2663 L18.2046,26.4604 C17.0124,27.0278 16.0349,27.9554 15.363,29.084 L17.0815,30.1071 Z M15.8684,30.5308 L15.8688,30.531 L16.5756,28.66 L16.5752,28.6599 L15.8684,30.5308 Z M17.1619,29.9363 L17.1627,29.934 L15.2809,29.2567 L15.2801,29.2589 L17.1619,29.9363 Z M17.0658,30.1336 C17.0707,30.1253 17.0756,30.117 17.0804,30.1088 L15.3616,29.0863 C15.3547,29.0979 15.3479,29.1094 15.3412,29.1208 L17.0658,30.1336 Z M16.5196,28.6785 C16.5174,28.6778 16.5149,28.677 16.5122,28.6761 L15.8947,30.5784 C15.8962,30.5788 15.8977,30.5794 15.8996,30.58 L16.5196,28.6785 Z M16.3863,32.0907 L17.1505,29.9679 L15.2687,29.2905 L14.5045,31.4133 L16.3863,32.0907 Z M15.136,32.703 C15.1396,32.7041 15.1431,32.7052 15.1466,32.7063 L15.7442,30.7977 C15.7381,30.7957 15.732,30.7938 15.7258,30.792 L15.136,32.703 Z M15.2957,37.4221 L16.4108,31.947 L14.4511,31.5479 L13.336,37.023 L15.2957,37.4221 Z M14.3388,36.2175 C14.3154,36.22 14.3032,36.2213 14.2924,36.2223 C14.2828,36.2232 14.2804,36.2232 14.2824,36.2231 L14.3493,38.222 C14.4383,38.219 14.5194,38.2097 14.5573,38.2055 L14.3388,36.2175 Z M14.6063,36.2 C14.4889,36.2 14.3829,36.2126 14.3388,36.2175 L14.5572,38.2055 C14.5709,38.204 14.5805,38.2029 14.5895,38.202 C14.5982,38.2011 14.604,38.2006 14.6081,38.2003 C14.6165,38.1996 14.6144,38.2 14.6063,38.2 L14.6063,36.2 Z M26.7033,36.2 L14.6063,36.2 L14.6063,38.2 L26.7033,38.2 L26.7033,36.2 Z M27.7033,39.4545 L27.7033,37.2 L25.7033,37.2 L25.7033,39.4545 L27.7033,39.4545 Z M14.6063,40.4545 L26.7033,40.4545 L26.7033,38.4545 L14.6063,38.4545 L14.6063,40.4545 Z M10.0641,43.7632 C10.6664,41.7916 12.4808,40.4545 14.6063,40.4545 L14.6063,38.4545 C11.6222,38.4545 9.0167,40.3463 8.1513,43.1788 L10.0641,43.7632 Z M8.5246,48.8034 L10.0641,43.7631 L8.1513,43.1789 L6.61187,48.2191 L8.5246,48.8034 Z M8.3329,47.4727 C8.0362,47.4727 7.7508,47.4898 7.475,47.5156 L7.6615,49.5069 C7.8914,49.4854 8.1128,49.4727 8.3329,49.4727 L8.3329,47.4727 Z M19.8144,47.4727 L8.3329,47.4727 L8.3329,49.4727 L19.8144,49.4727 L19.8144,47.4727 Z M20.8144,50.7273 L20.8144,48.4727 L18.8144,48.4727 L18.8144,50.7273 L20.8144,50.7273 Z M8.3329,51.7273 L19.8144,51.7273 L19.8144,49.7273 L8.3329,49.7273 L8.3329,51.7273 Z" id="Shape" fill="#34CBAB" fill-rule="nonzero" mask="url(#mask-2)"></path>
            </g>
        </g>
    </g>
</svg>