<?xml version="1.0" encoding="UTF-8"?>
<svg width="878px" height="660px" viewBox="0 0 878 660" version="1.1" xmlns="http://www.w3.org/2000/svg" xmlns:xlink="http://www.w3.org/1999/xlink">
    <title>home-background</title>
    <defs>
        <linearGradient x1="42.0392198%" y1="34.0776314%" x2="98.8601616%" y2="73.8086144%" id="linearGradient-1">
            <stop stop-color="#FFFFFF" offset="0%"></stop>
            <stop stop-color="#FFFFFF" stop-opacity="0" offset="100%"></stop>
        </linearGradient>
    </defs>
    <g id="Page-1" stroke="none" stroke-width="1" fill="none" fill-rule="evenodd">
        <g id="home-background">
            <path d="M868.075,660 L1.2691,660 C-9.70578,512.198 136.012,419.063 215.18,368.462 C225.465,361.889 234.626,356.033 242.175,350.869 C275.263,328.232 299.799,278.801 325.894,226.228 C373.97,129.372 427.337,21.8545 549.226,51.5907 C656.389,77.8024 817.447,189.332 878,356.181 L878,633.297 C874.996,642.129 871.691,651.031 868.075,660 Z" id="Path" fill="url(#linearGradient-1)" opacity="0.303943452"></path>
            <path d="M477,465 C351.079,465 249,475.297 249,488 C249,491.445811 256.511153,494.714584 269.971868,497.648816 C306.134153,505.531649 385.23628,511 477,511 C602.921,511 705,500.703 705,488 C705,475.297 602.921,465 477,465 Z" id="Path" fill-opacity="0.410893794" fill="#F0F0F5" fill-rule="nonzero"></path>
            <path d="M683.38,398.817 C683.38,398.817 651.032,491.056 647.566,491.056 C644.1,491.056 574.782,512.963 636.013,485.291 C636.013,485.291 642.945,384.981 653.343,380.369 C663.74,375.758 683.38,398.817 683.38,398.817 Z" id="Path" fill="#965450" fill-rule="nonzero"></path>
            <path d="M659.119,465.229 C669.632,437.903 683.381,398.817 683.381,398.817 C683.381,398.817 663.74,375.758 653.343,380.369 C646.642,383.367 641.328,426.489 638.439,456.466 C645.371,459.234 652.187,462.231 659.119,465.229 Z" id="Path" fill="#76413B" fill-rule="nonzero"></path>
            <path d="M625.962,490.249 C625.962,490.249 623.305,496.36 648.721,489.903 L647.566,493.362 C647.566,493.362 575.938,510.196 625.962,490.249 Z" id="Path" fill="#051F38" fill-rule="nonzero"></path>
            <path d="M663.74,359.731 C663.74,359.731 713.764,443.784 711.569,446.436 C709.374,449.087 681.647,516.191 699.669,451.509 C699.669,451.509 627.117,381.753 630.236,370.8 C633.471,359.962 663.74,359.731 663.74,359.731 Z" id="Path" fill="#965450" fill-rule="nonzero"></path>
            <path d="M697.128,462.347 C697.128,462.347 700.132,468.342 711.454,444.706 L713.418,447.819 C713.302,447.819 680.261,513.539 697.128,462.347 Z" id="Path" fill="#051F38" fill-rule="nonzero"></path>
            <path d="M692.854,409.771 C679.452,386.134 663.74,359.731 663.74,359.731 C663.74,359.731 633.471,359.962 630.236,370.8 C628.157,377.833 657.964,409.655 679.106,431.101 C679.221,431.216 687.424,422.108 692.854,409.771 Z" id="Path" fill="#76413B" fill-rule="nonzero"></path>
            <path d="M695.51,233.364 C695.51,233.364 664.894,199.351 646.987,220.681 C629.08,242.011 601.353,312.343 605.396,341.168 C607.823,358.117 624.112,376.219 637.167,388.325 L626.192,450.125 C626.192,450.125 671.248,462.231 668.36,462.231 C666.627,462.231 712.839,338.286 717.46,299.084 C722.082,259.883 695.51,233.364 695.51,233.364 Z" id="Path" fill="#33C5CC" fill-rule="nonzero"></path>
            <path d="M672.059,240.974 C680.608,240.858 689.966,239.705 698.168,236.362 C696.551,234.402 695.511,233.364 695.511,233.364 C695.511,233.364 664.896,199.351 646.989,220.681 C644.216,224.025 641.212,228.406 638.208,233.71 C648.26,239.244 660.968,241.204 672.059,240.974 Z" id="Path" fill="#352C38" fill-rule="nonzero" opacity="0.2"></path>
            <path d="M626.193,257.461 C613.485,286.401 602.741,322.374 605.398,341.053 C607.708,357.886 623.883,375.873 636.937,387.979 C641.559,356.618 649.992,313.035 655.076,287.9 C642.483,280.752 632.085,270.49 626.193,257.461 Z" id="Path" fill="#352C38" fill-rule="nonzero" opacity="0.2"></path>
            <path d="M607.131,165.337 L588.646,201.08 C588.646,201.08 556.298,183.209 551.676,183.209 C547.055,183.209 525.105,183.785 535.502,188.397 C535.502,188.397 530.881,191.279 536.08,192.432 C536.08,192.432 531.459,196.468 537.235,197.044 L550.521,196.468 C550.521,196.468 577.093,220.681 590.379,224.139 C603.665,227.598 625.038,182.632 625.038,182.632 L607.131,165.337 Z" id="Path" fill="#965450" fill-rule="nonzero"></path>
            <path d="M610.135,190.934 C613.023,191.972 616.027,193.01 619.031,194.047 C622.728,187.591 625.038,182.517 625.038,182.517 L607.131,165.223 L596.964,184.823 C601.008,187.36 605.514,189.32 610.135,190.934 Z" id="Path" fill="#76413B" fill-rule="nonzero"></path>
            <path d="M630.236,148.043 C630.236,148.043 612.907,145.161 606.552,154.385 C600.198,163.608 597.31,178.597 597.31,178.597 L622.149,190.704 L630.236,148.043 Z" id="Path" fill="#34CBAB" fill-rule="nonzero"></path>
            <path d="M620.648,180.673 C614.294,175.715 607.015,169.489 602.279,161.994 C598.813,170.065 597.195,178.482 597.195,178.482 L622.034,190.588 L623.536,182.748 C622.612,182.172 621.572,181.48 620.648,180.673 Z" id="Path" fill="#34CBAB" fill-rule="nonzero" opacity="0.1"></path>
            <path d="M508.699,178.943 C509.392,180.788 508.353,182.863 506.504,183.555 L492.872,188.513 C491.023,189.205 488.944,188.167 488.25,186.322 L482.821,171.218 C482.127,169.373 483.167,167.298 485.016,166.606 L498.648,161.648 C500.497,160.957 502.576,161.994 503.269,163.839 L508.699,178.943 Z" id="Path" fill="#000000" fill-rule="nonzero"></path>
            <path d="M519.674,167.644 L476.928,182.979 C469.419,185.63 465.607,193.932 468.264,201.426 L481.434,237.976 C484.091,245.47 492.409,249.275 499.919,246.623 L542.665,231.289 C550.174,228.637 553.987,220.335 551.33,212.841 L538.159,176.291 C535.387,168.797 527.184,164.877 519.674,167.644 Z M547.171,216.185 C548.21,219.182 546.708,222.526 543.705,223.564 L525.335,172.832 C528.339,171.795 531.69,173.294 532.729,176.291 L547.171,216.185 Z" id="Shape" fill="#33C5CC" fill-rule="nonzero"></path>
            <path d="M505.926,163.608 C506.504,165.223 505.695,167.067 504.078,167.644 L484.669,174.677 C483.051,175.254 481.203,174.447 480.625,172.832 L479.008,168.336 C478.43,166.722 479.239,164.877 480.856,164.3 L500.265,157.267 C501.883,156.691 503.731,157.498 504.309,159.112 L505.926,163.608 Z" id="Path" fill="#33C5CC" fill-rule="nonzero"></path>
            <path d="M533.191,185.515 C533.191,185.515 540.47,182.979 541.741,184.477 C542.896,185.861 535.618,187.936 535.964,188.052 C536.195,188.167 543.82,186.438 544.513,188.052 C545.207,189.666 536.426,192.548 536.426,192.548 C536.426,192.548 544.744,190.242 545.322,191.972 C545.9,193.701 536.657,196.238 536.657,196.238 L536.195,192.433 L535.618,188.052 L533.191,185.515 Z" id="Path" fill="#965450" fill-rule="nonzero"></path>
            <path d="M543.474,183.555 C543.474,183.555 537.813,179.75 537.813,178.482 C537.697,177.098 552.832,183.44 552.832,183.44 L543.474,183.555 Z" id="Path" fill="#965450" fill-rule="nonzero"></path>
            <path d="M655.075,145.161 C653.92,147.236 659.581,98.9261 659.581,98.9261 L633.356,116.567 C633.356,116.567 635.666,147.467 632.778,147.582 C631.623,147.582 627.117,149.312 622.149,151.156 C623.305,156.921 625.615,158.189 627.579,163.724 C642.252,163.609 658.195,163.263 667.206,149.888 C662.007,148.159 656.577,142.278 655.075,145.161 Z" id="Path" fill="#76413B" fill-rule="nonzero"></path>
            <path d="M630.236,148.043 L629.081,144.008 L657.964,137.666 L659.119,144.584 C659.119,144.584 693.778,156.114 698.399,182.056 C703.02,207.998 700.71,224.717 695.511,233.364 C695.511,233.364 655.075,239.129 637.746,230.482 C620.416,221.834 602.509,157.267 611.752,151.502 C620.994,145.737 630.236,148.043 630.236,148.043 Z" id="Path" fill="#34CBAB" fill-rule="nonzero"></path>
            <path d="M668.015,219.874 C654.151,219.067 637.168,217.453 625.615,208.921 C623.42,207.307 621.456,205.577 619.608,203.617 C624.807,216.415 631.276,227.253 637.746,230.482 C655.076,239.129 695.511,233.364 695.511,233.364 C697.822,229.559 699.555,224.14 700.363,216.992 C689.966,220.105 679.106,220.566 668.015,219.874 Z" id="Path" fill="#161826" fill-rule="nonzero" opacity="0.1"></path>
            <path d="M666.628,199.927 L696.088,197.621 C696.088,197.621 688.579,249.505 679.914,267.377 C671.25,285.248 631.392,355.58 646.988,316.378 C646.988,316.378 626.771,346.933 644.1,315.802 C644.1,315.802 625.038,340.591 641.789,314.073 C641.789,314.073 622.149,336.556 642.945,304.849 C642.945,304.849 627.348,312.343 644.678,299.66 L661.43,255.847 L666.628,199.927 Z" id="Path" fill="#965450" fill-rule="nonzero"></path>
            <path d="M695.395,201.772 C695.858,199.12 696.089,197.506 696.089,197.506 L666.628,199.812 L666.397,202.81 C675.986,202.81 685.691,202.349 695.395,201.772 Z" id="Path" fill="#76413B" fill-rule="nonzero"></path>
            <path d="M635.782,67.9108 C635.782,67.9108 650.455,59.3787 671.943,73.4451 C686.153,82.7843 685.46,112.647 654.729,132.247 C618.222,155.538 635.782,67.9108 635.782,67.9108 Z" id="Path" fill="#000000" fill-rule="nonzero"></path>
            <path d="M656.116,83.822 C656.116,83.822 639.595,71.0238 625.5,77.25 C607.709,85.3209 609.557,104.114 609.21,120.141 C608.748,141.471 625.616,145.507 630.699,145.737 C638.208,146.198 668.824,144.354 656.116,83.822 Z" id="Path" fill="#965450" fill-rule="nonzero"></path>
            <path d="M657.733,103.769 C657.733,103.769 658.426,100.54 663.972,103.077 C671.019,106.42 667.207,123.254 659.35,122.793 C651.379,122.447 657.733,103.769 657.733,103.769 Z" id="Path" fill="#965450" fill-rule="nonzero"></path>
            <path d="M657.732,103.769 C657.732,103.769 658.657,115.298 655.999,115.414 C653.227,115.529 650.338,94.5447 657.963,94.5447 C665.588,94.7753 657.732,103.769 657.732,103.769 Z" id="Path" fill="#051F38" fill-rule="nonzero"></path>
            <path d="M657.733,103.769 C657.733,103.769 652.072,78.1724 618.453,82.4384 C618.453,82.4384 623.305,72.8686 633.934,68.372 C648.375,62.2612 669.979,86.8198 663.971,103.077 C663.971,103.077 661.199,103.423 657.733,103.769 Z" id="Path" fill="#33B8CC" fill-rule="nonzero"></path>
            <path d="M671.943,80.1324 C671.943,80.1324 670.094,49.5783 677.488,49.5783 C684.882,49.5783 676.91,75.2899 676.91,75.2899 C676.91,75.2899 683.034,38.5097 700.825,44.044 C718.617,49.5783 687.886,75.2899 687.886,75.2899 C687.886,75.2899 701.98,62.3765 706.948,66.7578 C711.8,71.0238 686.73,79.6712 686.73,79.6712 C686.73,79.6712 705.793,74.1369 708.219,83.3608 C710.645,92.4693 671.365,91.2011 671.943,80.1324 Z" id="Path" fill="#000000" fill-rule="nonzero"></path>
            <path d="M610.134,97.8889 C610.134,97.8889 610.134,97.6583 610.365,97.1971 C610.596,96.7359 610.827,96.1594 611.405,95.5829 C611.983,95.0064 612.676,94.3146 613.6,93.8534 C613.831,93.7381 614.062,93.6228 614.409,93.5075 C614.64,93.3922 614.987,93.2769 615.218,93.2769 C615.564,93.2769 615.795,93.1616 616.142,93.1616 L617.066,93.1616 C617.644,93.1616 618.221,93.3922 618.799,93.6228 C619.377,93.8534 619.839,94.084 620.301,94.4299 C620.763,94.7758 621.11,95.1217 621.456,95.4676 C621.803,95.8135 622.034,96.1594 622.149,96.5053 C622.265,96.6206 622.38,96.8512 622.38,96.9665 C622.496,97.0818 622.496,97.3124 622.611,97.4277 C622.727,97.7736 622.843,98.0042 622.843,98.2348 C622.958,98.6959 622.958,98.9265 622.958,98.9265 C622.958,98.9265 622.727,98.8112 622.265,98.696 C622.034,98.5807 621.803,98.4653 621.572,98.3501 C621.341,98.2348 620.994,98.1195 620.647,97.8889 C620.301,97.7736 620.07,97.543 619.723,97.4277 C619.377,97.3124 619.03,97.1971 618.683,97.0818 C618.337,96.9665 617.99,96.8512 617.644,96.7359 C617.297,96.7359 616.951,96.6206 616.604,96.6206 L616.142,96.6206 C616.026,96.6206 615.795,96.6206 615.564,96.6206 C615.218,96.6206 614.871,96.7359 614.524,96.7359 C614.178,96.8512 613.831,96.8512 613.485,96.9665 C613.138,97.0818 612.791,97.0818 612.445,97.1971 C611.752,97.4277 611.174,97.543 610.827,97.6583 C610.481,97.8889 610.134,97.8889 610.134,97.8889 Z" id="Path" fill="#051F38" fill-rule="nonzero"></path>
            <path d="M619.03,129.595 C619.03,129.595 637.977,130.172 639.247,129.941 C640.403,129.711 628.619,138.935 619.03,129.595 Z" id="Path" fill="#FFFFFF" fill-rule="nonzero"></path>
            <path d="M620.301,108.496 C620.301,108.496 620.301,108.726 620.185,109.188 C620.07,109.649 619.954,110.225 619.723,111.032 C619.608,111.378 619.492,111.839 619.261,112.185 C619.145,112.416 619.03,112.647 618.914,112.762 C618.799,112.992 618.568,113.223 618.452,113.338 C618.106,113.684 617.759,114.145 617.181,114.376 C617.066,114.491 616.95,114.491 616.719,114.607 L616.373,114.722 C616.142,114.837 615.795,114.837 615.449,114.837 C614.871,114.837 614.178,114.722 613.716,114.261 C613.253,113.915 612.907,113.454 612.676,112.877 C612.445,112.416 612.329,111.955 612.214,111.494 C612.098,111.032 612.098,110.571 612.098,110.225 C612.098,109.418 612.098,108.842 612.214,108.381 C612.329,107.919 612.445,107.689 612.445,107.689 C612.445,107.689 612.445,108.726 612.791,110.225 C612.907,110.917 613.138,111.839 613.6,112.531 C613.831,112.877 614.062,113.223 614.409,113.454 C614.755,113.684 615.102,113.8 615.449,113.8 C615.68,113.8 615.795,113.8 616.026,113.684 L616.373,113.569 C616.373,113.569 616.488,113.454 616.604,113.454 C616.95,113.338 617.297,112.992 617.644,112.762 C617.99,112.416 618.221,112.07 618.452,111.724 C618.683,111.378 618.914,111.032 619.03,110.686 C619.377,109.995 619.608,109.418 619.839,109.072 C620.185,108.726 620.301,108.496 620.301,108.496 Z" id="Path" fill="#1F2733" fill-rule="nonzero"></path>
            <path d="M639.363,109.995 C639.363,109.995 639.363,110.225 639.248,110.686 C639.132,111.148 639.017,111.724 638.786,112.531 C638.67,112.877 638.555,113.338 638.323,113.684 C638.208,113.915 638.092,114.145 637.977,114.261 C637.861,114.491 637.63,114.722 637.515,114.837 C637.168,115.183 636.822,115.644 636.244,115.875 C636.128,115.99 636.013,115.99 635.782,116.106 L635.435,116.221 C635.204,116.336 634.858,116.336 634.511,116.336 C633.933,116.336 633.24,116.221 632.778,115.76 C632.316,115.414 631.969,114.953 631.738,114.376 C631.507,113.915 631.392,113.454 631.276,112.992 C631.161,112.531 631.161,112.07 631.161,111.724 C631.161,110.917 631.161,110.341 631.276,109.879 C631.392,109.418 631.507,109.188 631.507,109.188 C631.507,109.188 631.507,110.225 631.854,111.724 C631.969,112.416 632.2,113.338 632.663,114.03 C632.894,114.376 633.125,114.722 633.471,114.953 C633.818,115.183 634.164,115.298 634.511,115.298 C634.742,115.298 634.858,115.298 635.089,115.183 L635.435,115.068 C635.435,115.068 635.551,114.953 635.666,114.953 C636.013,114.837 636.359,114.491 636.706,114.261 C637.053,113.915 637.284,113.569 637.515,113.223 C637.746,112.877 637.977,112.531 638.092,112.185 C638.439,111.494 638.67,110.917 638.901,110.571 C639.248,110.225 639.363,109.995 639.363,109.995 Z" id="Path" fill="#1F2733" fill-rule="nonzero"></path>
            <path d="M660.39,119.565 C660.736,119.103 660.967,118.757 661.198,118.296 C661.429,117.835 661.545,117.374 661.66,116.913 C661.66,116.682 661.66,116.451 661.66,116.221 C661.66,116.106 661.545,115.99 661.545,115.99 C661.545,115.875 661.429,115.76 661.314,115.76 C661.198,115.644 661.198,115.644 661.083,115.529 L660.852,115.298 C660.736,115.183 660.621,115.183 660.505,115.183 L660.159,115.068 L659.927,114.953 L659.927,114.722 C659.581,113.454 659.465,112.301 659.35,111.032 C659.234,110.456 659.234,109.764 659.35,109.188 C659.35,108.496 659.465,107.919 659.696,107.228 C659.812,106.882 660.043,106.536 660.39,106.305 C660.736,106.075 661.198,105.844 661.545,105.959 C662.007,105.959 662.238,106.075 662.585,106.19 C662.931,106.305 663.278,106.421 663.509,106.651 C663.74,106.882 664.087,107.112 664.202,107.343 C664.433,107.574 664.549,107.919 664.664,108.15 C664.895,108.726 665.011,109.418 664.895,109.995 C664.78,109.418 664.664,108.842 664.318,108.265 C664.202,108.035 663.971,107.804 663.74,107.573 C663.509,107.343 663.278,107.228 663.047,107.112 C662.816,106.997 662.585,106.882 662.238,106.882 C662.007,106.882 661.66,106.766 661.429,106.766 C660.967,106.766 660.736,107.112 660.621,107.573 C660.274,108.611 660.39,109.764 660.39,110.917 C660.505,112.07 660.621,113.338 660.852,114.491 L660.621,114.146 L660.967,114.376 C661.083,114.491 661.198,114.491 661.314,114.607 L661.66,114.837 C661.776,114.953 661.891,115.068 662.007,115.183 C662.123,115.299 662.238,115.414 662.238,115.644 C662.354,115.76 662.354,115.99 662.354,116.106 C662.469,116.451 662.354,116.682 662.354,117.028 C662.238,117.604 661.891,118.066 661.545,118.527 C661.198,118.873 660.736,119.334 660.39,119.565 Z" id="Path" fill="#76413B" fill-rule="nonzero"></path>
            <path d="M622.034,124.407 C621.456,124.522 620.994,124.522 620.532,124.522 C620.07,124.522 619.608,124.407 619.261,124.292 C618.799,124.176 618.452,123.946 618.106,123.831 C617.875,123.715 617.759,123.6 617.528,123.485 C617.297,123.369 617.182,123.254 616.951,123.139 L616.257,122.562 L616.373,122.101 C617.528,118.757 618.683,115.529 619.839,112.301 C620.994,109.072 622.265,105.729 623.536,102.5 C622.727,105.844 621.803,109.303 620.994,112.647 C620.07,115.99 619.146,119.334 618.221,122.678 L617.759,121.64 C617.99,121.64 618.221,121.755 618.452,121.755 C618.683,121.755 618.915,121.87 619.03,121.986 C619.377,122.101 619.839,122.332 620.185,122.562 C620.532,122.793 620.879,123.139 621.225,123.485 C621.456,123.6 621.803,123.946 622.034,124.407 Z" id="Path" fill="#76413B" fill-rule="nonzero"></path>
            <path d="M628.85,96.5048 C628.85,96.5048 628.966,96.1589 629.312,95.813 C629.543,95.5824 629.659,95.3518 630.005,95.0059 C630.352,94.7753 630.583,94.4294 631.045,94.1988 C631.392,93.9682 631.854,93.6223 632.431,93.3917 C632.894,93.1611 633.471,92.9305 634.049,92.6999 C634.627,92.5846 635.32,92.354 636.013,92.354 C636.36,92.354 636.706,92.354 637.053,92.354 L638.092,92.4693 C638.786,92.4693 639.479,92.8152 640.056,92.9305 C640.634,93.1611 641.212,93.507 641.789,93.7376 C642.367,94.0835 642.829,94.4294 643.176,94.7753 C643.638,95.1212 643.984,95.5824 644.216,95.9283 C644.562,96.2742 644.793,96.6201 645.024,96.966 C645.255,97.3119 645.371,97.6578 645.486,97.8884 C645.717,98.3496 645.833,98.6955 645.833,98.6955 C645.833,98.6955 645.486,98.5802 645.024,98.3496 C644.793,98.2343 644.447,98.119 644.1,97.8884 C643.753,97.6578 643.407,97.5425 642.945,97.4272 C642.598,97.3119 642.136,97.0813 641.674,96.8507 C641.212,96.7354 640.75,96.5048 640.288,96.3895 C639.825,96.2742 639.363,96.1589 638.901,96.0436 C638.439,96.0436 637.977,95.813 637.399,95.813 L636.706,95.6977 L636.013,95.6977 C635.551,95.6977 634.973,95.6977 634.511,95.6977 C634.049,95.6977 633.587,95.6977 633.125,95.813 C632.663,95.813 632.2,95.9283 631.738,95.9283 C630.93,96.0436 630.121,96.1589 629.659,96.2742 C629.197,96.5048 628.85,96.5048 628.85,96.5048 Z" id="Path" fill="#051F38" fill-rule="nonzero"></path>
            <path d="M612.907,490.825 C612.907,494.976 609.557,498.435 605.398,498.55 C601.239,498.55 597.773,495.207 597.657,491.056 L597.311,466.613 C597.311,462.462 600.661,459.003 604.82,458.888 C608.979,458.888 612.445,462.231 612.56,466.382 L612.907,490.825 Z" id="Path" fill="#091E1D" fill-rule="nonzero"></path>
            <path d="M506.504,492.095 C506.504,496.245 503.154,499.704 498.995,499.82 C494.836,499.82 491.37,496.476 491.254,492.325 L490.908,467.882 C490.908,463.731 494.258,460.272 498.417,460.157 C502.576,460.157 506.042,463.501 506.158,467.651 L506.504,492.095 Z" id="Path" fill="#091E1D" fill-rule="nonzero"></path>
            <path d="M604.358,473.415 C604.473,482.87 596.848,490.595 587.375,490.71 L516.209,491.518309 C506.735,491.633 498.995,484.023 498.879,474.568 L491.254,312.92 C491.139,303.466 498.764,295.741 508.237,295.625 L590.841,294.586691 C600.314,294.472 608.055,302.082 608.17,311.536 L604.358,473.415 Z" id="Path" fill="#34CBAB" fill-rule="nonzero"></path>
            <path d="M607.708,327.793 L608.055,311.767 C607.939,302.313 600.199,294.703 590.725,294.818 L508.121,295.856 C498.648,295.971 491.023,303.696 491.139,313.151 L491.947,329.177 L607.708,327.793 Z" id="Path" fill="#161826" fill-rule="nonzero" opacity="0.1"></path>
            <path d="M621.803,307.732 C621.803,310.383 619.723,312.459 617.066,312.574 L482.127,314.188 C479.47,314.188 477.391,312.113 477.275,309.461 L477.044,292.397 C477.044,289.745 479.123,287.67 481.781,287.554 L616.719,285.94 C619.377,285.94 621.456,288.016 621.572,290.667 L621.803,307.732 Z" id="Path" fill="#35D5B3" fill-rule="nonzero"></path>
            <polygon id="Path" fill="#FFFFFF" fill-rule="nonzero" points="550.174 355.119 565.886 345.665 562.074 355.465"></polygon>
            <path d="M544.283,340.246 C544.283,340.246 545.554,340.246 547.518,343.243 C549.482,346.241 553.872,354.312 553.872,354.312 L561.843,350.738 L563.692,347.625 C563.692,347.625 560.226,340.707 557.453,340.246 L544.283,340.246 Z" id="Path" fill="#FFFFFF" fill-rule="nonzero"></path>
            <path d="M539.892,342.321 C539.892,342.321 542.318,339.669 544.282,341.053 C546.246,342.437 549.712,348.202 549.712,348.202 L544.051,358.117 L533.885,352.468 L539.892,342.321 Z" id="Path" fill="#FFFFFF" fill-rule="nonzero"></path>
            <polygon id="Path" fill="#FFFFFF" fill-rule="nonzero" points="557.338 367.456 558.146 385.673 551.33 377.718"></polygon>
            <path d="M573.281,369.301 C573.281,369.301 572.703,370.454 569.121,370.8 C565.54,371.146 556.298,371.146 556.298,371.146 L555.604,379.908 L557.453,383.021 C557.453,383.021 565.193,383.367 566.926,381.061 L573.281,369.301 Z" id="Path" fill="#FFFFFF" fill-rule="nonzero"></path>
            <path d="M573.396,364.458 C573.396,364.458 574.667,367.802 572.472,368.955 C570.392,369.993 563.576,370.223 563.576,370.223 L557.453,360.538 L567.273,354.197 L573.396,364.458 Z" id="Path" fill="#FFFFFF" fill-rule="nonzero"></path>
            <polygon id="Path" fill="#FFFFFF" fill-rule="nonzero" points="543.472 367.226 527.298 358.693 537.696 356.849"></polygon>
            <path d="M533.885,380.024 C533.885,380.024 533.192,378.986 534.694,375.758 C536.195,372.529 540.817,364.574 540.817,364.574 L533.654,359.616 L530.072,359.731 C530.072,359.731 525.913,366.303 526.953,368.84 L533.885,380.024 Z" id="Path" fill="#FFFFFF" fill-rule="nonzero"></path>
            <path d="M537.928,382.56 C537.928,382.56 534.347,381.868 534.578,379.562 C534.694,377.141 537.928,371.261 537.928,371.261 L549.366,370.915 L549.828,382.56 L537.928,382.56 Z" id="Path" fill="#FFFFFF" fill-rule="nonzero"></path>
            <path d="M302.247,445.167 C302.247,445.167 299.706,485.868 297.511,486.675 C295.59298,487.330411 290.818956,488.671597 285.295049,490.034078 C266.528992,494.662755 239.108348,499.537185 285.611,478.604 L283.994,448.972 L302.247,445.167 Z" id="Path" fill="#051F38" fill-rule="nonzero"></path>
            <path d="M299.59,476.759 C301.092,464.422 302.247,445.167 302.247,445.167 L283.994,448.972 L285.496,475.376 C290.001,476.644 295.2,476.759 299.59,476.759 Z" id="Path" fill="#041523" fill-rule="nonzero"></path>
            <path d="M260.079,492.786 C258.231,497.282 291.503,488.75 297.511,486.675 C297.626,486.56 297.857,486.329 298.088,485.752 C290.579,487.828 267.82,493.016 260.079,492.786 Z" id="Path" fill-rule="nonzero"></path>
            <path d="M341.181,442.977 C341.181,442.977 344.532,483.677 346.842,484.369 C355.391,487.136 419.279,502.01 358.511,476.067 L359.55,446.436 L341.181,442.977 Z" id="Path" fill="#051F38" fill-rule="nonzero"></path>
            <path d="M344.532,474.453 C342.799,462.232 341.181,442.977 341.181,442.977 L359.55,446.436 L358.626,472.839 C354.12,474.223 348.922,474.338 344.532,474.453 Z" id="Path" fill="#041523" fill-rule="nonzero"></path>
            <path d="M384.389,489.788 C386.353,494.284 352.85,486.329 346.842,484.369 C346.611,484.369 346.496,484.023 346.265,483.446 C353.774,485.522 376.649,490.249 384.389,489.788 Z" id="Path" fill="#FFFFFF" fill-rule="nonzero"></path>
            <path d="M352.387,223.218 C352.387,223.218 369.023,357.31 365.673,465.806 C365.673,465.806 345.802,471.34 340.603,467.305 C336.097,441.593 336.675,391.554 329.974,354.427 C323.62,319.377 321.079,290.667 321.079,290.667 L318.999,288.361 C318.999,288.361 305.366,457.85 302.363,470.764 C285.149,474.799 279.719,470.072 279.719,470.072 C279.719,470.072 271.863,258.038 276.715,223.794 C282.954,179.059 352.387,223.218 352.387,223.218 Z" id="Path" fill="#34CBAB" fill-rule="nonzero"></path>
            <path d="M355.39,251.004 C353.657,233.709 352.27,223.333 352.27,223.333 C352.27,223.333 282.953,179.173 276.598,223.909 C276.021,228.06 275.674,234.862 275.328,243.51 C280.526,246.392 345.454,255.616 355.39,251.004 Z" id="Path" fill="#161826" fill-rule="nonzero" opacity="0.1"></path>
            <path d="M319.808,286.978 C320.616,296.086 324.775,325.488 329.974,354.427 C336.675,391.669 336.097,441.593 340.603,467.305 C345.802,471.34 365.673,465.806 365.673,465.806 C367.637,399.048 362.207,322.605 357.586,273.719 C346.611,280.636 332.631,283.98 319.808,286.978 Z" id="Path" fill="#161826" fill-rule="nonzero" opacity="0.1"></path>
            <path d="M325.7,105.959 C325.815,91.8929 326.855,73.3298 326.855,73.3298 L299.128,65.7201 C299.128,65.7201 300.052,90.8552 300.861,106.19 C288.268,110.456 273.942,118.527 273.942,118.527 L326.277,131.786 L344.878,113.8 C344.878,113.8 335.52,109.072 325.7,105.959 Z" id="Path" fill="#FFB39F" fill-rule="nonzero"></path>
            <path d="M325.7,105.959 C325.815,91.8929 326.855,73.3298 326.855,73.3298 L299.128,65.7201 C299.128,65.7201 300.052,90.8552 300.861,106.19 C288.268,110.456 273.942,118.527 273.942,118.527 L326.277,131.786 L351.001,110.571 C351.001,110.571 335.635,104.806 325.7,105.959 Z" id="Path" fill="#E09B8D" fill-rule="nonzero"></path>
            <path d="M296.702,39.0862 C296.702,39.0862 303.98,15.5653 323.158,19.2549 C342.336,22.9444 345.109,47.9642 347.535,64.7978 C349.961,81.7466 344.531,96.966 329.512,98.8108 C316.457,100.425 293.698,97.8884 296.702,39.0862 Z" id="Path" fill="#FFB39F" fill-rule="nonzero"></path>
            <path d="M297.626,58.8022 C297.626,58.8022 296.471,55.6892 291.734,59.1481 C285.726,63.5295 291.849,79.6712 299.128,77.9418 C306.406,76.2123 297.626,58.8022 297.626,58.8022 Z" id="Path" fill="#FFB39F" fill-rule="nonzero"></path>
            <path d="M290.925,25.5963 C291.387,25.481 300.399,24.7892 294.391,25.3657 C299.936,31.3612 299.359,32.8601 306.984,34.2436 C311.027,46.6959 303.056,54.1903 303.056,54.1903 L305.251,69.1791 L299.474,69.7556 C299.474,69.7556 299.59,59.3787 295.2,58.4563 C290.81,57.5339 289.539,62.8377 289.539,62.8377 C280.412,51.3078 271.169,28.7093 290.925,25.5963 Z" id="Path" fill="#E9D055" fill-rule="nonzero"></path>
            <path d="M343.26,17.1795 C346.957,8.07089 340.719,0 340.719,0 C341.758,3.34366 341.296,6.45671 340.256,8.99328 C339.563,6.45671 338.292,3.68955 335.982,0.922387 C335.982,0.922387 336.675,10.1463 324.082,8.99328 C311.489,7.84029 289.423,9.56977 288.499,29.0552 C287.459,48.5407 306.291,34.3589 306.291,34.3589 C306.291,34.3589 343.838,44.8511 349.268,14.6429 L343.26,17.1795 Z" id="Path" fill="#EFD865" fill-rule="nonzero"></path>
            <path d="M325.469,50.8476 C325.469,50.8476 325.122,50.8476 324.66,50.7323 C324.082,50.617 323.389,50.5017 322.581,50.3864 C322.118,50.2711 321.772,50.2711 321.31,50.2711 C320.848,50.1558 320.386,50.1558 319.923,50.1558 C319.461,50.1558 318.999,50.1558 318.421,50.1558 C318.19,50.1558 317.959,50.1558 317.728,50.1558 L317.035,50.2711 C316.573,50.2711 316.111,50.3864 315.533,50.5017 C315.071,50.617 314.609,50.7323 314.147,50.8476 C313.685,50.9629 313.223,51.1935 312.761,51.3088 C312.298,51.4241 311.952,51.6547 311.49,51.77 C311.143,51.8853 310.681,52.0006 310.45,52.2312 C310.103,52.3465 309.872,52.4618 309.641,52.5771 C309.179,52.8077 308.833,52.923 308.833,52.923 C308.833,52.923 308.948,52.5771 309.179,52.1159 C309.295,51.8853 309.41,51.5394 309.641,51.1935 C309.872,50.8476 310.103,50.5017 310.45,50.1558 C310.797,49.8099 311.028,49.3487 311.49,49.0028 C311.952,48.6569 312.414,48.311 312.992,47.9651 C313.569,47.7345 314.147,47.3886 314.725,47.158 C315.418,46.9274 315.995,46.8121 316.689,46.6968 L317.728,46.5815 C318.075,46.5815 318.422,46.5815 318.768,46.6968 C319.115,46.6968 319.461,46.8121 319.692,46.8121 C320.039,46.9274 320.27,46.9274 320.617,47.0427 C321.194,47.2733 321.772,47.3886 322.234,47.7345 C322.696,47.9651 323.158,48.311 323.62,48.5416 C323.967,48.7722 324.314,49.1181 324.66,49.3487 C324.891,49.5793 325.122,49.9252 325.353,50.0405 C325.238,50.5017 325.469,50.8476 325.469,50.8476 Z" id="Path" fill="#051F38" fill-rule="nonzero"></path>
            <path d="M344.993,50.2701 C344.993,50.2701 344.762,50.1548 344.3,50.0395 C343.838,49.9242 343.26,49.6936 342.682,49.463 C342.336,49.3477 341.989,49.2325 341.643,49.1172 C341.296,49.0019 340.949,48.8865 340.603,48.8865 C340.256,48.8865 339.91,48.7713 339.563,48.656 C339.448,48.656 339.216,48.656 339.101,48.5407 L338.639,48.5407 C338.292,48.4254 337.946,48.656 337.599,48.5407 C337.252,48.656 336.906,48.656 336.559,48.7713 C336.213,48.8866 335.866,49.0019 335.52,49.1172 C335.173,49.2325 334.826,49.3477 334.595,49.463 C334.249,49.5783 333.902,49.6936 333.671,49.8089 C333.44,49.9242 333.209,50.0395 332.978,50.0395 C332.516,50.1548 332.285,50.2701 332.285,50.2701 C332.285,50.2701 332.285,50.0395 332.516,49.5783 C332.631,49.3477 332.631,49.1171 332.862,48.7713 C332.978,48.4254 333.209,48.1948 333.44,47.8489 C333.671,47.503 333.902,47.1571 334.249,46.8112 C334.595,46.4653 335.057,46.2347 335.404,45.8888 C335.866,45.6582 336.444,45.4276 336.906,45.197 C337.484,45.0817 338.061,44.9664 338.639,44.9664 C338.985,44.9664 339.216,44.9664 339.563,44.9664 C339.91,44.9664 340.141,45.0817 340.372,45.197 C340.603,45.197 340.949,45.3123 341.18,45.4276 C341.412,45.5429 341.643,45.6582 341.874,45.7735 C342.798,46.35 343.491,46.9265 343.953,47.6183 C344.415,48.3101 344.646,48.8866 344.877,49.3477 C344.993,50.0395 344.993,50.2701 344.993,50.2701 Z" id="Path" fill="#051F38" fill-rule="nonzero"></path>
            <path d="M330.783,51.5384 C331.476,53.0373 332.17,54.6515 332.863,56.1504 C333.209,56.9574 333.44,57.6492 333.787,58.4563 L334.711,60.7623 L335.635,63.0683 C335.982,63.8754 336.213,64.5671 336.56,65.3742 L337.022,66.5272 C337.137,66.8731 337.368,67.3343 337.484,67.6802 C337.831,68.372 338.177,69.0638 338.524,69.8709 L338.87,70.7933 L338.177,71.1392 C337.137,71.6004 336.098,72.1768 334.942,72.638 C333.903,73.0992 332.747,73.5604 331.592,73.9063 C332.516,73.0992 333.44,72.4074 334.365,71.7157 C335.289,71.0239 336.329,70.3321 337.253,69.6403 L336.906,70.9086 C336.444,70.2168 335.982,69.4097 335.52,68.7179 C335.058,68.0261 334.711,67.219 334.365,66.4119 L333.787,65.2589 L333.325,64.106 C333.094,63.2989 332.747,62.4918 332.516,61.6847 L331.823,59.2634 C331.592,58.4563 331.476,57.6492 331.245,56.8421 C331.13,54.9974 330.899,53.2679 330.783,51.5384 Z" id="Path" fill="#DD9078" fill-rule="nonzero"></path>
            <path d="M297.279,74.5981 C296.817,74.3675 296.355,74.0216 296.009,73.5604 C295.662,73.2145 295.2,72.7533 294.969,72.1769 C294.853,71.9463 294.738,71.6004 294.738,71.2545 C294.738,71.1392 294.738,70.9086 294.738,70.7933 C294.738,70.678 294.853,70.4474 294.853,70.3321 C294.969,69.9862 295.2,69.7556 295.431,69.525 C295.546,69.4097 295.662,69.2944 295.777,69.1791 L296.124,68.9485 L295.893,69.2944 C295.893,68.0261 295.893,66.7578 295.777,65.6048 C295.662,64.3366 295.546,63.0683 295.084,62.0306 C294.969,61.8 294.853,61.5694 294.622,61.4541 C294.507,61.3388 294.276,61.2235 294.045,61.2235 C293.929,61.2235 293.813,61.2235 293.698,61.3388 C293.582,61.3388 293.351,61.4541 293.236,61.4541 C293.005,61.5694 292.774,61.6847 292.543,61.9153 C292.312,62.1459 292.08,62.2612 291.965,62.4918 C291.849,62.7224 291.618,62.953 291.503,63.2989 C291.272,63.8754 291.156,64.4519 291.156,65.1436 C290.925,64.5671 290.925,63.8754 291.041,63.1836 C291.041,62.8377 291.156,62.4918 291.387,62.2612 C291.503,61.9153 291.734,61.6847 291.965,61.4541 L292.312,61.1082 L292.774,60.7623 C292.889,60.647 293.12,60.647 293.236,60.5317 C293.351,60.4164 293.582,60.4164 293.813,60.3011 C294.276,60.1858 294.738,60.3011 295.084,60.647 C295.431,60.8776 295.662,61.2235 295.777,61.5694 C296.124,62.2612 296.24,62.8377 296.471,63.5295 C296.586,64.2213 296.702,64.7977 296.702,65.4895 C296.817,66.7578 296.817,68.0261 296.702,69.4097 L296.702,69.6403 L296.471,69.7556 C296.24,69.8709 296.009,69.9862 295.893,70.2168 C295.777,70.3321 295.546,70.5627 295.431,70.678 C295.315,70.7933 295.315,70.9086 295.315,71.0239 C295.315,71.1392 295.2,71.2545 295.2,71.3698 C295.2,71.6004 295.2,71.831 295.2,72.0615 C295.315,72.5227 295.546,72.9839 295.893,73.4451 C296.586,73.9063 296.933,74.2522 297.279,74.5981 Z" id="Path" fill="#DD9078" fill-rule="nonzero"></path>
            <path d="M315.417,61.8 C315.417,61.8 315.533,62.0306 315.649,62.4917 C315.764,62.7223 315.764,62.9529 315.88,63.1835 C315.995,63.4141 316.111,63.76 316.342,64.1059 C316.457,64.4518 316.804,64.6824 316.919,65.0283 C317.035,65.1436 317.15,65.2589 317.381,65.4895 C317.497,65.6048 317.613,65.7201 317.844,65.8354 C318.19,66.066 318.537,66.1813 318.883,66.2966 C319.114,66.2966 319.23,66.4119 319.461,66.4119 C319.692,66.4119 319.808,66.4119 320.039,66.2966 L320.616,66.066 L321.194,65.7201 C321.541,65.4895 321.772,65.1436 322.003,64.7977 C322.234,64.4518 322.349,64.1059 322.58,63.76 C322.696,63.4141 322.811,63.0682 322.811,62.607 C322.811,62.2611 322.811,61.9152 322.927,61.6847 C322.927,61.3388 322.927,61.1082 322.927,60.8776 C322.927,60.4164 322.927,60.1858 322.927,60.1858 C322.927,60.1858 323.042,60.4164 323.158,60.8776 C323.274,61.1082 323.274,61.3388 323.389,61.6847 C323.389,62.0305 323.505,62.3764 323.505,62.7223 C323.505,63.0682 323.505,63.5294 323.389,63.9906 C323.274,64.4518 323.158,64.913 322.927,65.3742 C322.696,65.8354 322.349,66.2966 321.887,66.6425 L321.194,67.1037 C320.963,67.219 320.616,67.3343 320.385,67.4496 C320.154,67.4496 319.808,67.5649 319.461,67.5649 C319.23,67.5649 318.883,67.4496 318.652,67.4496 C318.075,67.3343 317.613,66.9884 317.15,66.6425 C316.688,66.2966 316.457,65.8354 316.226,65.4895 C315.995,65.0283 315.764,64.6824 315.649,64.3365 C315.533,63.9906 315.417,63.6447 315.417,63.2988 C315.417,62.9529 315.417,62.7223 315.417,62.4917 C315.417,62.0306 315.417,61.8 315.417,61.8 Z" id="Path" fill="#1F2733" fill-rule="nonzero"></path>
            <path d="M336.329,58.341 C336.329,58.341 336.444,58.5716 336.56,59.0328 C336.675,59.2634 336.675,59.494 336.791,59.7246 C336.906,59.9552 337.022,60.3011 337.253,60.647 C337.368,60.9929 337.715,61.2235 337.831,61.5694 C337.946,61.6847 338.062,61.8 338.293,62.0306 C338.408,62.1459 338.524,62.2612 338.755,62.3765 C339.101,62.6071 339.448,62.7224 339.795,62.8377 C340.026,62.8377 340.141,62.953 340.372,62.953 C340.603,62.953 340.719,62.953 340.95,62.8377 L341.527,62.6071 L342.105,62.2612 C342.452,62.0306 342.683,61.6847 342.914,61.3388 C343.145,60.9929 343.26,60.647 343.491,60.3011 C343.607,59.9552 343.723,59.6093 343.723,59.1481 C343.723,58.8022 343.723,58.4563 343.838,58.2257 C343.838,57.8798 343.838,57.6492 343.838,57.4186 C343.838,56.9574 343.838,56.7269 343.838,56.7269 C343.838,56.7269 343.954,56.9574 344.069,57.4186 C344.185,57.6492 344.185,57.8798 344.3,58.2257 C344.3,58.5716 344.416,58.9175 344.416,59.2634 C344.416,59.6093 344.416,60.0705 344.3,60.5317 C344.185,60.9929 344.069,61.4541 343.838,61.9153 C343.607,62.3765 343.26,62.8377 342.798,63.1836 L342.105,63.6448 C341.874,63.7601 341.527,63.8754 341.296,63.9906 C341.065,63.9906 340.719,64.106 340.372,64.106 C340.141,64.106 339.795,63.9906 339.563,63.9906 C338.986,63.8754 338.524,63.5295 338.062,63.1836 C337.599,62.8377 337.368,62.3765 337.137,62.0306 C336.906,61.5694 336.675,61.2235 336.56,60.8776 C336.444,60.5317 336.329,60.1858 336.329,59.8399 C336.329,59.494 336.329,59.2634 336.329,59.0328 C336.329,58.5716 336.329,58.341 336.329,58.341 Z" id="Path" fill="#1F2733" fill-rule="nonzero"></path>
            <path d="M317.237,78.1034 C317.237,78.1034 317.121,78.1034 317.237,78.2187 C317.352,78.334 317.583,78.4493 317.815,78.5646 C318.277,78.9105 319.085,79.2564 320.01,79.7176 C320.934,80.1788 322.089,80.64 323.244,80.9858 C323.822,81.2164 324.515,81.3317 325.093,81.447 C325.671,81.5623 326.364,81.6776 327.057,81.7929 C328.328,81.9082 329.599,82.0235 330.869,81.9082 C332.14,81.7929 333.18,81.5623 334.22,81.2164 C335.144,80.8705 335.953,80.64 336.53,80.4094 C337.108,80.1788 337.455,80.0635 337.455,80.0635 C337.455,80.0635 337.224,80.4094 336.761,80.7552 C336.299,81.2164 335.606,81.7929 334.682,82.3694 C333.758,82.9459 332.487,83.5224 331.1,83.753 C329.714,84.0989 328.212,84.0989 326.71,83.9836 C326.017,83.8683 325.208,83.753 324.515,83.5224 C323.822,83.2918 323.129,83.0612 322.551,82.7153 C321.28,82.1388 320.241,81.447 319.432,80.7552 C318.623,80.0635 317.93,79.3717 317.583,78.7952 C317.352,78.5646 317.237,78.334 317.237,78.1034 C317.121,78.1034 317.121,78.2187 317.237,78.1034 Z" id="Path" fill="#DD9078" fill-rule="nonzero"></path>
            <path d="M335.289,105.613 C335.289,105.613 364.865,102.5 368.677,125.099 C372.49,147.813 372.143,153.923 372.143,153.923 L343.261,149.657 L335.289,105.613 Z" id="Path" fill="#33B8CC" fill-rule="nonzero"></path>
            <path d="M360.242,123.83 C358.509,109.417 343.837,106.304 335.288,105.612 C331.475,110.916 326.161,114.721 318.883,114.952 C310.564,115.182 302.939,112.3 298.896,105.958 C285.957,107.457 273.133,111.147 270.244,119.909 C264.121,138.357 269.436,239.82 269.436,239.82 C269.436,239.82 321.193,248.698 363.708,240.627 C363.593,240.742 362.553,143.084 360.242,123.83 Z" id="Path" fill="#33C5CC" fill-rule="nonzero"></path>
            <path d="M267.242,169.258 C267.473,202.695 269.437,239.936 269.437,239.936 C269.437,239.936 321.194,248.814 363.709,240.743 C363.709,240.743 362.9,166.606 361.167,134.784 C329.859,146.429 298.55,157.959 267.242,169.258 Z" id="Path" fill="#352C38" fill-rule="nonzero" opacity="0.2"></path>
            <path d="M299.127,196.007 C299.127,196.007 297.972,192.664 303.286,190.473 C308.601,188.282 363.362,173.985 366.828,174.447 C370.293,174.908 412.693,179.981 413.386,182.287 C414.079,184.593 362.668,201.196 362.668,201.196 L299.127,196.007 Z" id="Path" fill="#E1EDFF" fill-rule="nonzero"></path>
            <path d="M365.557,205.577 C365.557,205.577 305.597,205.347 300.976,199.928 C296.355,194.509 296.239,190.588 322.465,195.2 C348.69,199.812 363.824,199.12 363.824,199.12 C363.824,199.12 411.885,176.753 413.502,182.172 C415.004,187.706 420.087,186.322 365.557,205.577 Z" id="Path" fill="#C0D5FF" fill-rule="nonzero"></path>
            <path d="M413.387,182.287 C411.885,176.868 363.709,199.236 363.709,199.236 C363.709,199.236 363.593,199.236 363.247,199.236 C364.286,201.311 365.095,203.271 366.019,205.462 C420.087,186.322 415.004,187.706 413.387,182.287 Z" id="Path" fill="#B1C5E8" fill-rule="nonzero"></path>
            <path d="M297.394,183.67 C297.394,183.67 296.238,180.327 301.553,178.136 C306.867,175.945 361.628,161.648 365.094,162.11 C368.56,162.571 410.959,167.644 411.653,169.95 C412.346,172.256 360.935,188.859 360.935,188.859 L297.394,183.67 Z" id="Path" fill="#E1EDFF" fill-rule="nonzero"></path>
            <path d="M363.824,193.356 C363.824,193.356 303.864,193.125 299.243,187.706 C294.622,182.287 294.506,178.367 320.731,182.979 C346.957,187.591 362.091,186.899 362.091,186.899 C362.091,186.899 410.151,164.531 411.769,169.95 C413.155,175.369 418.354,173.985 363.824,193.356 Z" id="Path" fill="#C0D5FF" fill-rule="nonzero"></path>
            <path d="M411.654,170.065 C410.152,164.646 361.976,187.014 361.976,187.014 C361.976,187.014 361.86,187.014 361.514,187.014 C362.553,189.09 363.362,191.05 364.286,193.24 C418.239,173.985 413.155,175.369 411.654,170.065 Z" id="Path" fill="#B1C5E8" fill-rule="nonzero"></path>
            <path d="M297.163,173.639 C297.163,173.639 296.123,170.757 301.206,168.797 C306.29,166.837 359.318,154.269 362.668,154.73 C366.019,155.192 407.032,159.688 407.725,161.648 C408.418,163.608 358.625,178.367 358.625,178.367 L297.163,173.639 Z" id="Path" fill="#E1EDFF" fill-rule="nonzero"></path>
            <path d="M361.398,182.172 C361.398,182.172 303.402,181.941 298.897,177.214 C294.391,172.486 294.391,169.027 319.692,173.063 C344.993,177.098 359.665,176.522 359.665,176.522 C359.665,176.522 406.224,156.806 407.726,161.648 C409.228,166.376 414.195,165.107 361.398,182.172 Z" id="Path" fill="#C0D5FF" fill-rule="nonzero"></path>
            <path d="M407.726,161.648 C406.224,156.921 359.665,176.522 359.665,176.522 C359.665,176.522 359.55,176.522 359.203,176.522 C360.127,178.251 361.052,180.096 361.86,181.941 C414.195,165.107 409.228,166.376 407.726,161.648 Z" id="Path" fill="#B1C5E8" fill-rule="nonzero"></path>
            <path d="M298.78,160.15 C298.78,160.15 297.856,157.267 303.055,155.422 C308.254,153.693 361.629,143.085 364.979,143.662 C368.329,144.123 409.111,150.234 409.689,152.194 C410.267,154.154 360.011,166.952 360.011,166.952 L298.78,160.15 Z" id="Path" fill="#FFFFFF" fill-rule="nonzero"></path>
            <path d="M362.669,171.102 C362.669,171.102 304.673,168.681 300.399,163.838 C296.124,158.88 296.124,155.537 321.309,160.494 C346.495,165.452 361.167,165.452 361.167,165.452 C361.167,165.452 408.419,147.581 409.69,152.308 C411.076,157.035 416.044,155.998 362.669,171.102 Z" id="Path" fill="#C0D5FF" fill-rule="nonzero"></path>
            <path d="M409.69,152.309 C408.419,147.467 361.167,165.453 361.167,165.453 C361.167,165.453 361.052,165.453 360.705,165.453 C361.629,167.298 362.438,169.143 363.131,170.988 C415.928,155.999 410.961,157.036 409.69,152.309 Z" id="Path" fill="#B1C5E8" fill-rule="nonzero"></path>
            <path d="M268.628,162.34 L297.164,155.422 C297.164,155.422 303.287,196.93 304.904,199.236 C306.522,201.542 354.236,203.848 354.236,203.848 L368.099,204.655 C368.099,204.655 309.525,229.213 292.658,219.298 C275.56,209.151 268.628,162.34 268.628,162.34 Z" id="Path" fill="#FFB39F" fill-rule="nonzero"></path>
            <path d="M271.401,167.298 C280.181,164.646 288.73,161.418 297.741,159.458 C297.395,156.921 297.164,155.422 297.164,155.422 L268.628,162.34 C268.628,162.34 268.975,164.416 269.552,167.875 C270.245,167.644 270.823,167.413 271.401,167.298 Z" id="Path" fill="#E09B8D" fill-rule="nonzero"></path>
            <path d="M362.785,208.46 C362.785,208.46 384.504,202.695 384.504,198.313 C384.504,193.932 376.648,178.136 382.194,199.236 C382.194,199.236 370.641,170.642 379.883,200.619 C379.883,200.619 370.872,177.329 376.995,201.196 C376.995,201.196 367.752,185.054 374.453,202.349 L366.135,205.462 L346.148,205.231 L335.52,215.608 L362.785,208.46 Z" id="Path" fill="#FFB39F" fill-rule="nonzero"></path>
            <path d="M413.618,187.36 C413.618,187.36 402.065,158.766 411.307,188.744 C411.307,188.744 402.296,165.453 408.419,189.32 C408.419,189.32 399.176,173.178 405.068,190.588 L398.714,193.586 C401.025,193.817 404.029,193.701 406.455,192.894 C413.849,191.395 415.928,188.859 415.928,186.553 C415.928,182.172 408.072,166.376 413.618,187.36 Z" id="Path" fill="#FFB39F" fill-rule="nonzero"></path>
            <path d="M443.078,490.825 C443.078,494.976 439.728,498.435 435.569,498.55 C431.409,498.55 427.944,495.207 427.828,491.056 L427.481,466.613 C427.481,462.462 430.832,459.003 434.991,458.888 C439.15,458.888 442.616,462.231 442.731,466.382 L443.078,490.825 Z" id="Path" fill="#091E1D" fill-rule="nonzero"></path>
            <path d="M336.675,492.095 C336.675,496.245 333.325,499.704 329.166,499.82 C325.007,499.82 321.541,496.476 321.425,492.325 L321.079,467.882 C321.079,463.731 324.429,460.272 328.588,460.157 C332.747,460.157 336.213,463.501 336.329,467.651 L336.675,492.095 Z" id="Path" fill="#091E1D" fill-rule="nonzero"></path>
            <path d="M434.529,473.415 C434.645,482.87 427.02,490.595 417.546,490.71 L346.38,491.518309 C336.907,491.633 329.166,484.023 329.051,474.568 L321.426,312.92 C321.31,303.466 328.935,295.741 338.408,295.625 L421.012,294.586691 C430.486,294.472 438.226,302.082 438.342,311.536 L434.529,473.415 Z" id="Path" fill="#33C5CC" fill-rule="nonzero"></path>
            <path d="M437.879,327.793 L438.226,311.767 C438.111,302.313 430.37,294.703 420.897,294.818 L338.293,295.856 C328.819,295.971 321.194,303.696 321.31,313.151 L322.119,329.177 L437.879,327.793 Z" id="Path" fill="#1BB2B9" fill-rule="nonzero"></path>
            <path d="M451.974,307.732 C451.974,310.383 449.895,312.459 447.237,312.574 L312.299,314.188 C309.641,314.188 307.562,312.113 307.446,309.461 L307.215,292.397 C307.215,289.745 309.295,287.67 311.952,287.554 L446.891,285.94 C449.548,285.94 451.628,288.016 451.743,290.667 L451.974,307.732 Z" id="Path" fill="#3DD1D9" fill-rule="nonzero"></path>
            <polygon id="Path" fill="#FFFFFF" fill-rule="nonzero" points="380.346 355.119 396.058 345.665 392.245 355.465"></polygon>
            <path d="M374.454,340.246 C374.454,340.246 375.724,340.246 377.688,343.243 C379.652,346.241 384.043,354.312 384.043,354.312 L392.014,350.738 L393.863,347.625 C393.863,347.625 390.397,340.707 387.624,340.246 L374.454,340.246 Z" id="Path" fill="#FFFFFF" fill-rule="nonzero"></path>
            <path d="M370.064,342.321 C370.064,342.321 372.49,339.669 374.454,341.053 C376.418,342.437 379.884,348.202 379.884,348.202 L374.223,358.117 L364.056,352.468 L370.064,342.321 Z" id="Path" fill="#FFFFFF" fill-rule="nonzero"></path>
            <polygon id="Path" fill="#FFFFFF" fill-rule="nonzero" points="387.509 367.456 388.317 385.673 381.501 377.718"></polygon>
            <path d="M403.451,369.301 C403.451,369.301 402.874,370.454 399.292,370.8 C395.711,371.146 386.469,371.146 386.469,371.146 L385.775,379.908 L387.624,383.022 C387.624,383.022 395.364,383.367 397.097,381.061 L403.451,369.301 Z" id="Path" fill="#FFFFFF" fill-rule="nonzero"></path>
            <path d="M403.567,364.458 C403.567,364.458 404.838,367.802 402.643,368.955 C400.563,369.993 393.747,370.223 393.747,370.223 L387.624,360.538 L397.444,354.197 L403.567,364.458 Z" id="Path" fill="#FFFFFF" fill-rule="nonzero"></path>
            <polygon id="Path" fill="#FFFFFF" fill-rule="nonzero" points="373.76 367.226 357.585 358.694 367.868 356.849"></polygon>
            <path d="M364.056,380.024 C364.056,380.024 363.363,378.986 364.865,375.758 C366.367,372.529 370.988,364.574 370.988,364.574 L363.825,359.616 L360.244,359.731 C360.244,359.731 356.085,366.303 357.124,368.84 L364.056,380.024 Z" id="Path" fill="#FFFFFF" fill-rule="nonzero"></path>
            <path d="M368.215,382.56 C368.215,382.56 364.634,381.868 364.865,379.562 C364.98,377.141 368.215,371.261 368.215,371.261 L379.653,370.915 L380.115,382.56 L368.215,382.56 Z" id="Path" fill="#FFFFFF" fill-rule="nonzero"></path>
        </g>
    </g>
</svg>