<?xml version="1.0" encoding="UTF-8"?>
<svg width="182px" height="44px" viewBox="0 0 182 44" version="1.1" xmlns="http://www.w3.org/2000/svg" xmlns:xlink="http://www.w3.org/1999/xlink">
    <title>logo</title>
    <g id="Page-1" stroke="none" stroke-width="1" fill="none" fill-rule="evenodd">
        <g id="logo" fill-rule="nonzero">
            <polygon id="Path" fill="#34CBAB" points="72 33.832 72 11.656 86.976 11.656 86.976 15.848 76.992 15.848 76.992 20.2 85.856 20.2 85.856 24.296 76.992 24.296 76.992 29.64 87.712 29.64 87.712 33.832"></polygon>
            <path d="M89.9112,25.416 C89.9112,24.2 90.1032,23.0587 90.4872,21.992 C90.8926,20.904 91.4686,19.9653 92.2153,19.176 C92.9619,18.3653 93.8686,17.7253 94.9352,17.256 C96.0019,16.7867 97.2179,16.552 98.5833,16.552 C99.4792,16.552 100.301,16.6373 101.047,16.808 C101.794,16.9573 102.519,17.1813 103.223,17.48 L102.231,21.288 C101.783,21.1173 101.293,20.968 100.759,20.84 C100.226,20.712 99.6286,20.648 98.9673,20.648 C97.5593,20.648 96.5033,21.0853 95.7992,21.96 C95.1166,22.8347 94.7752,23.9867 94.7752,25.416 C94.7752,26.9307 95.0953,28.104 95.7353,28.936 C96.3966,29.768 97.5379,30.184 99.1593,30.184 C99.7353,30.184 100.354,30.1307 101.015,30.024 C101.677,29.9173 102.285,29.7467 102.839,29.512 L103.511,33.416 C102.957,33.6507 102.263,33.8533 101.431,34.024 C100.599,34.1947 99.6819,34.28 98.6793,34.28 C97.1433,34.28 95.8206,34.056 94.7113,33.608 C93.6019,33.1387 92.6846,32.5093 91.9592,31.72 C91.2552,30.9307 90.7326,30.0027 90.3913,28.936 C90.0713,27.848 89.9112,26.6747 89.9112,25.416 Z" id="Path" fill="#34CBAB"></path>
            <path d="M121.643,25.384 C121.643,26.7067 121.451,27.9227 121.067,29.032 C120.683,30.12 120.128,31.0587 119.403,31.848 C118.677,32.616 117.803,33.2133 116.779,33.64 C115.776,34.0667 114.645,34.28 113.387,34.28 C112.149,34.28 111.019,34.0667 109.995,33.64 C108.992,33.2133 108.128,32.616 107.403,31.848 C106.677,31.0587 106.112,30.12 105.707,29.032 C105.301,27.9227 105.099,26.7067 105.099,25.384 C105.099,24.0613 105.301,22.856 105.707,21.768 C106.133,20.68 106.709,19.752 107.435,18.984 C108.181,18.216 109.056,17.6187 110.059,17.192 C111.083,16.7653 112.192,16.552 113.387,16.552 C114.603,16.552 115.712,16.7653 116.715,17.192 C117.739,17.6187 118.613,18.216 119.339,18.984 C120.064,19.752 120.629,20.68 121.035,21.768 C121.44,22.856 121.643,24.0613 121.643,25.384 Z M116.779,25.384 C116.779,23.912 116.48,22.76 115.883,21.928 C115.307,21.0747 114.475,20.648 113.387,20.648 C112.299,20.648 111.456,21.0747 110.859,21.928 C110.261,22.76 109.963,23.912 109.963,25.384 C109.963,26.856 110.261,28.0293 110.859,28.904 C111.456,29.7573 112.299,30.184 113.387,30.184 C114.475,30.184 115.307,29.7573 115.883,28.904 C116.48,28.0293 116.779,26.856 116.779,25.384 Z" id="Shape" fill="#34CBAB"></path>
            <path d="M132.056,34.152 C130.67,34.1307 129.539,33.9813 128.664,33.704 C127.811,33.4267 127.128,33.0427 126.616,32.552 C126.126,32.04 125.784,31.432 125.592,30.728 C125.422,30.0027 125.336,29.192 125.336,28.296 L125.336,9.768 L130.104,9 L130.104,27.336 C130.104,27.7627 130.136,28.1467 130.2,28.488 C130.264,28.8293 130.382,29.1173 130.552,29.352 C130.744,29.5867 131.011,29.7787 131.352,29.928 C131.694,30.0773 132.152,30.1733 132.728,30.216 L132.056,34.152 Z" id="Path" fill="#34CBAB"></path>
            <path d="M134.661,25.544 C134.661,24.0507 134.885,22.7493 135.333,21.64 C135.803,20.5093 136.411,19.5707 137.157,18.824 C137.904,18.0773 138.757,17.512 139.717,17.128 C140.699,16.744 141.701,16.552 142.725,16.552 C145.115,16.552 147.003,17.288 148.389,18.76 C149.776,20.2107 150.469,22.3547 150.469,25.192 C150.469,25.4693 150.459,25.7787 150.437,26.12 C150.416,26.44 150.395,26.728 150.373,26.984 L139.557,26.984 C139.664,27.9653 140.123,28.744 140.933,29.32 C141.744,29.896 142.832,30.184 144.197,30.184 C145.072,30.184 145.925,30.1093 146.757,29.96 C147.611,29.7893 148.304,29.5867 148.837,29.352 L149.477,33.224 C149.221,33.352 148.88,33.48 148.453,33.608 C148.027,33.736 147.547,33.8427 147.013,33.928 C146.501,34.0347 145.947,34.12 145.349,34.184 C144.752,34.248 144.155,34.28 143.557,34.28 C142.043,34.28 140.72,34.056 139.589,33.608 C138.48,33.16 137.552,32.552 136.805,31.784 C136.08,30.9947 135.536,30.0667 135.173,29 C134.832,27.9333 134.661,26.7813 134.661,25.544 Z M145.861,23.72 C145.84,23.3147 145.765,22.92 145.637,22.536 C145.531,22.152 145.349,21.8107 145.093,21.512 C144.859,21.2133 144.549,20.968 144.165,20.776 C143.803,20.584 143.344,20.488 142.789,20.488 C142.256,20.488 141.797,20.584 141.413,20.776 C141.029,20.9467 140.709,21.1813 140.453,21.48 C140.197,21.7787 139.995,22.1307 139.845,22.536 C139.717,22.92 139.621,23.3147 139.557,23.72 L145.861,23.72 Z" id="Shape" fill="#34CBAB"></path>
            <path d="M153.989,12.808 L158.757,12.04 L158.757,17 L164.485,17 L164.485,20.968 L158.757,20.968 L158.757,26.888 C158.757,27.8907 158.927,28.6907 159.269,29.288 C159.631,29.8853 160.346,30.184 161.413,30.184 C161.925,30.184 162.447,30.1413 162.981,30.056 C163.535,29.9493 164.037,29.8107 164.485,29.64 L165.157,33.352 C164.581,33.5867 163.941,33.7893 163.237,33.96 C162.533,34.1307 161.669,34.216 160.645,34.216 C159.343,34.216 158.266,34.0453 157.413,33.704 C156.559,33.3413 155.877,32.8507 155.365,32.232 C154.853,31.592 154.49,30.824 154.277,29.928 C154.085,29.032 153.989,28.04 153.989,26.952 L153.989,12.808 Z" id="Path" fill="#34CBAB"></path>
            <path d="M174.174,30.504 C174.644,30.504 175.092,30.4933 175.519,30.472 C175.945,30.4507 176.286,30.4187 176.543,30.376 L176.543,26.76 C176.351,26.7173 176.062,26.6747 175.678,26.632 C175.294,26.5893 174.942,26.568 174.622,26.568 C174.174,26.568 173.748,26.6 173.342,26.664 C172.958,26.7067 172.617,26.8027 172.318,26.952 C172.02,27.1013 171.785,27.304 171.615,27.56 C171.444,27.816 171.358,28.136 171.358,28.52 C171.358,29.2667 171.604,29.7893 172.094,30.088 C172.606,30.3653 173.3,30.504 174.174,30.504 Z M173.79,16.552 C175.198,16.552 176.372,16.712 177.311,17.032 C178.249,17.352 178.996,17.8107 179.55,18.408 C180.126,19.0053 180.532,19.7307 180.767,20.584 C181.001,21.4373 181.118,22.3867 181.118,23.432 L181.118,33.352 C180.436,33.5013 179.487,33.672 178.271,33.864 C177.054,34.0773 175.582,34.184 173.854,34.184 C172.767,34.184 171.775,34.088 170.879,33.896 C170.004,33.704 169.246,33.3947 168.606,32.968 C167.966,32.52 167.476,31.944 167.134,31.24 C166.793,30.536 166.622,29.672 166.622,28.648 C166.622,27.6667 166.814,26.8347 167.199,26.152 C167.604,25.4693 168.137,24.9253 168.799,24.52 C169.46,24.1147 170.217,23.8267 171.071,23.656 C171.924,23.464 172.809,23.368 173.727,23.368 C174.345,23.368 174.889,23.4 175.358,23.464 C175.849,23.5067 176.244,23.5707 176.543,23.656 L176.543,23.208 C176.543,22.3973 176.297,21.7467 175.807,21.256 C175.316,20.7653 174.463,20.52 173.246,20.52 C172.436,20.52 171.636,20.584 170.846,20.712 C170.057,20.8187 169.374,20.9787 168.799,21.192 L168.19,17.352 C168.468,17.2667 168.809,17.1813 169.215,17.096 C169.641,16.9893 170.1,16.904 170.59,16.84 C171.081,16.7547 171.593,16.6907 172.127,16.648 C172.681,16.584 173.236,16.552 173.79,16.552 Z" id="Shape" fill="#34CBAB"></path>
            <path d="M14.642,1.84962 L10.0671,10.5861 C9.77168,11.1501 9.96621,11.8554 10.5046,12.1725 L17.6681,16.3922 C18.214,16.7137 18.9079,16.516 19.2183,15.9504 L27.9745,0.000644684 L17.6401,0.000644684 C16.3892,0.000644684 15.2386,0.710173 14.642,1.84962 Z" id="Path" fill="#34C2CB"></path>
            <path d="M27.974,0 L19.2182,15.95 C18.9072,16.5154 18.2137,16.7136 17.6681,16.3923 L15.7983,15.2913 C16.2542,15.3674 16.7284,15.1503 16.9698,14.7099 L25.0468,0 L27.974,0 Z" id="Path" fill="#2FB8B2"></path>
            <path d="M37.5549,8.45922 L34.3995,1.94901 C33.8206,0.754574 32.641,0.000644684 31.3513,0.000644684 L22.228,0.000644684 L29.2328,12.3166 C29.2099,12.3273 29.1868,12.338 29.1638,12.3487 C28.7232,12.5542 28.7412,13.2093 29.1923,13.3888 L35.241,15.796 C35.5213,15.9076 35.8358,15.7625 35.9434,15.4721 L38.2751,9.17953 C38.4475,8.71406 37.9948,8.26491 37.5549,8.45922 Z" id="Path" fill="#34C2CB"></path>
            <path d="M38.2751,9.17899 L35.9427,15.4715 C35.8356,15.7627 35.5206,15.9079 35.2406,15.7958 L33.4104,15.0671 L35.5922,9.17899 C35.7162,8.84506 35.5181,8.51988 35.2339,8.43458 C34.9632,8.35326 34.7321,8.16954 34.6056,7.90858 L31.7165,1.94875 C31.1379,0.754706 29.9587,0 28.6685,0 L31.3514,0 C32.6407,0 33.8199,0.754706 34.3994,1.94875 L37.5546,8.45945 C37.9951,8.26524 38.4471,8.71361 38.2751,9.17899 Z" id="Path" fill="#2FB8B2"></path>
            <path d="M31.4594,33.5593 C31.3744,33.1978 30.9244,33.043 30.6498,33.3275 L25.9222,38.2268 C25.7336,38.4223 25.7336,38.7391 25.9222,38.9345 L30.668,43.8526 C30.9408,44.1353 31.3862,43.9844 31.4758,43.6291 L38.4548,43.6291 C39.7397,43.6291 40.9156,42.8809 41.4969,41.6934 L45.4791,33.5592 L31.4594,33.5592 L31.4594,33.5593 Z" id="Path" fill="#34C2CB"></path>
            <path d="M37.3508,33.5594 L39.6137,37.1079 C40.1253,37.9101 40.1819,38.9353 39.762,39.7928 L38.8313,41.6935 C38.2509,42.8806 37.0745,43.6293 35.79,43.6293 L38.4547,43.6293 C39.7392,43.6293 40.9155,42.8806 41.497,41.6935 L45.4789,33.5594 L37.3508,33.5594 L37.3508,33.5594 Z" id="Path" fill="#2FB8B2"></path>
            <path d="M21.9354,42.6939 L21.9354,34.0356 C21.9354,33.3849 21.4263,32.8572 20.7983,32.8572 L2.06787,32.8572 L6.88812,42.0281 C7.48559,43.1649 8.63469,43.8723 9.88372,43.8723 L20.7983,43.8723 C21.4262,43.8723 21.9354,43.3448 21.9354,42.6939 Z" id="Path" fill="#34C2CB"></path>
            <polygon id="Path" fill="#248F86" points="10.0115 32.858 5.85181 40.0573 2.06787 32.858"></polygon>
            <path d="M21.935,34.0358 L21.935,42.6944 C21.935,43.345 21.426,43.8724 20.7983,43.8724 L17.8149,43.8724 C18.4427,43.8724 18.9517,43.345 18.9517,42.6944 L18.9517,34.0358 C18.9517,33.3852 18.4427,32.8578 17.8149,32.8578 L20.7983,32.8578 C21.426,32.8578 21.935,33.3852 21.935,34.0358 Z" id="Path" fill="#2FB8B2"></path>
            <path d="M12.7847,25.2066 L11.9436,18.6467 C11.902,18.3226 11.6148,18.0949 11.3021,18.1379 L4.94784,19.0129 C4.46934,19.0788 4.29102,19.682 4.61877,20.0176 L0.608522,26.0077 C-0.126759,27.106 -0.201384,28.54 0.415585,29.7138 L4.77955,38.0167 L11.8654,25.7507 C12.2773,26.0747 12.8515,25.7282 12.7847,25.2066 Z" id="Path" fill="#34C2CB"></path>
            <path d="M11.8725,25.7566 C11.8705,25.7545 11.8677,25.7526 11.8657,25.7506 L4.77961,38.0163 L3.32227,35.2438 L9.08977,25.2586 L9.2497,24.9816 C9.33717,24.8302 9.50808,24.7648 9.67523,24.7984 C9.67608,24.7986 9.67692,24.7987 9.67777,24.7989 C10.0334,24.8646 10.3981,24.5576 10.3435,24.1362 L9.60464,18.3712 L11.3015,18.138 C11.6145,18.095 11.9023,18.3232 11.9438,18.6464 L12.785,25.2072 C12.8518,25.7285 12.2771,26.0748 11.8725,25.7566 Z" id="Path" fill="#2FB8B2"></path>
            <path d="M47.3959,25.5569 L41.9103,17.3197 C41.5739,16.8144 40.9193,16.6615 40.4062,16.9684 L33.2574,21.2435 C32.69,21.5828 32.5159,22.3475 32.8771,22.9139 L42.9549,38.7151 L47.6306,29.1643 C48.1965,28.0083 48.1065,26.6239 47.3959,25.5569 Z" id="Path" fill="#34C2CB"></path>
            <path d="M47.6305,29.1645 L42.9541,38.7148 L41.3857,36.2546 L44.8568,29.1644 C45.4227,28.0084 45.3329,26.6242 44.6221,25.5572 L39.3306,17.6123 L40.4064,16.9687 C40.9193,16.6614 41.5741,16.8145 41.9102,17.32 L47.3959,25.5573 C48.1066,26.6243 48.1964,28.0085 47.6305,29.1645 Z" id="Path" fill="#2FB8B2"></path>
        </g>
    </g>
</svg>